<svg width="26" height="27" viewBox="0 0 26 27" fill="none" xmlns="http://www.w3.org/2000/svg">
<path d="M12.0876 18.1217C12.4315 15.4474 14.6373 13.4009 17.3298 13.2578C20.5256 13.0881 23.21 15.6337 23.21 18.834V19.1048C23.21 22.3305 20.595 24.9455 17.3692 24.9455H11.21L12.0876 18.1217Z" fill="#8348FF"/>
<path d="M14.055 6.8477C14.4354 9.50401 16.6448 11.5182 19.3249 11.6519L19.5799 11.6647C22.6428 11.8175 25.21 9.37522 25.21 6.30843C25.21 3.34658 22.8089 0.945533 19.8471 0.945533H13.21L14.055 6.8477Z" fill="white"/>
<path d="M3.58483 1.80122C3.65648 1.30987 4.07782 0.94552 4.57437 0.94552L8.20962 0.94552C10.1654 1.10144 11.5778 2.88464 11.2817 4.8242L8.20962 24.9455L1.36612 24.9455C0.756402 24.9455 0.288605 24.4046 0.376589 23.8012L3.58483 1.80122Z" fill="#8348FF"/>
</svg>
