<svg width="1643" height="204" viewBox="0 0 1643 204" fill="none" xmlns="http://www.w3.org/2000/svg">
<path d="M578.5 204V105.019H479.756V204H683.159V105.019H584.415V204H849.102V105.019H750.522V204H953.761V105.019H855.017V204H1058.42V105.019H959.676V204H1163.08V105.019H1064.34V204H1329.02V105.019H1230.44V204H1433.68V105.019H1334.94V204H1538.34V105.019H1439.6V204H1643V105.019H1544.26V204H98.58H1643L0 99.0012H98.58V-6.58631e-06H0V99.0012H203.239V-6.58631e-06H104.495V99.0012H369.182V-6.58631e-06H270.602V99.0012H375.261V-6.58631e-06H473.841V99.0012H849.102V-6.58631e-06H750.522V99.0012H855.017V-6.58631e-06H953.761V99.0012H1329.02V-6.58631e-06H1230.44V99.0012H1334.94V-6.58631e-06H1433.68V99.0012H1538.34V-6.58631e-06H1439.6V99.0012H1544.26V-6.58631e-06H1643V99.0012H1478.7H0L1643 204H578.5Z" fill="black"/>
</svg>
