<svg width="125" height="36" viewBox="0 0 125 36" fill="none" xmlns="http://www.w3.org/2000/svg">
<path d="M11.9044 25.0725C18.4792 25.0725 23.8092 19.7959 23.8092 13.2868C23.8092 12.5491 23.7407 11.8273 23.6098 11.1271C22.9025 10.9975 22.1734 10.9297 21.4282 10.9297C14.8534 10.9297 9.52344 16.2063 9.52344 22.7154C9.52344 23.4531 9.5919 24.175 9.72287 24.8751C10.4301 25.0048 11.1593 25.0725 11.9044 25.0725Z" fill="#71717B"/>
<path opacity="0.8" fill-rule="evenodd" clip-rule="evenodd" d="M9.72325 24.875C4.19029 23.8605 0 19.0581 0 13.2867C0 6.77762 5.32994 1.50098 11.9048 1.50098C17.7344 1.50098 22.5854 5.64936 23.6101 11.127C22.9029 10.9973 22.1737 10.9295 21.4286 10.9295C14.8538 10.9295 9.52381 16.2062 9.52381 22.7153C9.52381 23.453 9.59227 24.1748 9.72325 24.875Z" fill="#71717B"/>
<path opacity="0.6" fill-rule="evenodd" clip-rule="evenodd" d="M11.9042 25.0714C18.479 25.0714 23.809 19.7948 23.809 13.2857C23.809 12.548 23.7405 11.8261 23.6095 11.126C29.1425 12.1404 33.3328 16.9429 33.3328 22.7143C33.3328 29.2233 28.0028 34.5 21.428 34.5C15.5983 34.5 10.7474 30.3516 9.72266 24.874C10.4299 25.0036 11.1591 25.0714 11.9042 25.0714Z" fill="#71717B"/>
<path d="M51.1765 25.6799C55.2447 25.6799 58.1765 23.4074 58.4719 20.0324H55.0628C54.7901 21.6524 53.2219 22.7549 51.1765 22.7549C48.6083 22.7549 46.631 20.9999 46.631 17.6249C46.631 14.2499 48.6083 12.4724 51.1765 12.4724C53.1765 12.4724 54.7447 13.5749 54.9719 15.2174H58.5401C58.1083 11.8199 55.1765 9.56992 51.1765 9.56992C46.9265 9.56992 43.1992 12.3149 43.1992 17.6249C43.1992 22.9349 46.8583 25.6799 51.1765 25.6799Z" fill="#71717B"/>
<path d="M64.7965 13.9799C61.6602 13.9799 59.7965 15.8024 59.6602 18.0749H62.4784C62.5238 17.1299 63.2284 16.2749 64.6147 16.2749C65.9102 16.2749 66.6602 16.9274 66.6602 17.8724C66.6602 18.3449 66.3647 18.7049 65.7965 18.7049H63.8647C61.3647 18.7049 59.6829 20.0549 59.6829 22.2824C59.6829 24.2174 61.2056 25.6799 63.4329 25.6799C65.0011 25.6799 66.2738 24.9824 66.6602 23.9249V25.4999H69.7965V18.2099C69.7965 15.6449 67.6829 13.9799 64.7965 13.9799ZM64.2284 23.4074C63.342 23.4074 62.7056 22.8899 62.7056 22.1474C62.7056 21.2699 63.3874 20.6849 64.342 20.6849H66.6602V20.8424C66.6602 22.2824 65.7738 23.4074 64.2284 23.4074Z" fill="#71717B"/>
<path d="M71.9219 30.0899H75.081V24.4874C75.6946 25.2524 76.8083 25.6799 78.1037 25.6799C81.3992 25.6799 83.6264 23.3624 83.6264 19.8299C83.6264 16.2974 81.581 13.9799 78.3764 13.9799C76.8992 13.9799 75.7628 14.5199 75.081 15.3974V14.1599H71.9219V30.0899ZM77.7173 22.9799C76.0128 22.9799 74.8992 21.7199 74.8992 19.8299C74.8992 17.9174 76.0128 16.6574 77.7173 16.6574C79.3764 16.6574 80.5128 17.9174 80.5128 19.8299C80.5128 21.7199 79.3764 22.9799 77.7173 22.9799Z" fill="#71717B"/>
<path d="M89.1854 25.6799C91.8672 25.6799 93.64 24.2624 93.64 22.1024C93.64 16.9724 87.3672 19.6049 87.3672 17.2874C87.3672 16.5674 87.9809 16.1849 88.8672 16.1849C89.7309 16.1849 90.6172 16.7024 90.7536 17.6699H93.5036C93.39 15.4424 91.5263 13.9799 88.7763 13.9799C86.4354 13.9799 84.6854 15.3974 84.6854 17.3999C84.6854 22.1699 90.8445 19.8974 90.8445 22.2149C90.8445 22.8449 90.1627 23.3174 89.1854 23.3174C88.0036 23.3174 87.2082 22.6874 87.0945 21.6749H84.3672C84.4809 24.1274 86.39 25.6799 89.1854 25.6799Z" fill="#71717B"/>
<path d="M106.12 14.1599H102.938V20.3699C102.938 21.8099 101.961 22.8899 100.575 22.8899C99.2791 22.8899 98.37 21.8999 98.37 20.5274V14.1599H95.2109V21.2249C95.2109 23.8124 96.8928 25.6799 99.4609 25.6799C101.029 25.6799 102.302 25.0049 102.938 23.9249V25.4999H106.12V14.1599Z" fill="#71717B"/>
<path d="M108.391 25.4999H111.55V9.23242H108.391V25.4999Z" fill="#71717B"/>
<path d="M121.48 21.6524C121.23 22.6199 120.389 23.1149 119.116 23.1149C117.526 23.1149 116.503 22.1249 116.276 20.5274H124.503C124.526 20.2799 124.548 19.9424 124.548 19.5149C124.548 16.9274 122.935 13.9799 118.889 13.9799C115.003 13.9799 113.23 16.9274 113.23 19.8074C113.23 22.6649 115.23 25.6799 119.116 25.6799C121.935 25.6799 124.116 24.1049 124.571 21.6524H121.48ZM118.889 16.2749C120.412 16.2749 121.298 17.2874 121.389 18.5474H116.321C116.594 16.9724 117.457 16.2749 118.889 16.2749Z" fill="#71717B"/>
</svg>
