<svg width="121" height="36" viewBox="0 0 121 36" fill="none" xmlns="http://www.w3.org/2000/svg">
<path d="M6.84999 14.3994H0V21.5994H6.84999V14.3994Z" fill="#71717B"/>
<path d="M13.7008 21.6006H20.5508V14.4006H13.7008V21.6006Z" fill="#71717B"/>
<path opacity="0.4" d="M6.85156 14.3992L13.7015 7.19922V14.3992L6.85156 21.5992V14.3992Z" fill="#71717B"/>
<path opacity="0.6" d="M13.7015 21.6008L6.85156 28.8008V21.6008L13.7015 14.4008V21.6008Z" fill="#71717B"/>
<path opacity="0.8" d="M0 14.4L13.7 0V7.19999L6.84998 14.4H0Z" fill="#71717B"/>
<path opacity="0.8" d="M20.5516 21.6L6.85156 36V28.8L13.7016 21.6H20.5516Z" fill="#71717B"/>
<path d="M35.4712 25.7111C34.3924 25.7111 33.3468 25.5501 32.3345 25.2281C31.3355 24.9061 30.543 24.4791 29.957 23.9471L30.856 21.8261C31.4288 22.3021 32.128 22.6941 32.9539 23.0021C33.793 23.2961 34.6321 23.4431 35.4712 23.4431C36.5101 23.4431 37.2827 23.2681 37.7888 22.9181C38.3083 22.5681 38.568 22.1061 38.568 21.5321C38.568 21.1121 38.4215 20.7691 38.1285 20.5031C37.8487 20.2231 37.4891 20.0061 37.0496 19.8521C36.61 19.6981 36.0107 19.5231 35.2515 19.3271C34.1859 19.0611 33.3201 18.7951 32.6542 18.5291C32.0015 18.2631 31.4354 17.8501 30.9559 17.2901C30.4898 16.7161 30.2567 15.9461 30.2567 14.9801C30.2567 14.1681 30.4631 13.4331 30.876 12.7751C31.3022 12.1031 31.9349 11.5711 32.774 11.1791C33.6265 10.7871 34.6654 10.5911 35.8908 10.5911C36.7432 10.5911 37.5824 10.7031 38.4082 10.9271C39.234 11.1511 39.9466 11.4731 40.5459 11.8931L39.7268 14.0141C39.1141 13.6361 38.4748 13.3491 37.8088 13.1531C37.1428 12.9571 36.4968 12.8591 35.8708 12.8591C34.8452 12.8591 34.0793 13.0411 33.5732 13.4051C33.0804 13.7691 32.834 14.2521 32.834 14.8541C32.834 15.2741 32.9738 15.6171 33.2535 15.8831C33.5466 16.1491 33.9129 16.3591 34.3524 16.5131C34.7919 16.6671 35.3913 16.8421 36.1505 17.0381C37.1894 17.2901 38.0419 17.5561 38.7078 17.8361C39.3738 18.1021 39.9399 18.5151 40.4061 19.0751C40.8856 19.6351 41.1253 20.3911 41.1253 21.3431C41.1253 22.1551 40.9122 22.8901 40.486 23.5481C40.0731 24.2061 39.4404 24.7311 38.588 25.1231C37.7355 25.5151 36.6966 25.7111 35.4712 25.7111Z" fill="#71717B"/>
<path d="M43.4607 14.2871H45.9581V25.5011H43.4607V14.2871ZM44.7194 12.4391C44.2665 12.4391 43.8869 12.2921 43.5806 11.9981C43.2742 11.6901 43.1211 11.3121 43.1211 10.8641C43.1211 10.4161 43.2742 10.0451 43.5806 9.75106C43.8869 9.44306 44.2665 9.28906 44.7194 9.28906C45.1723 9.28906 45.5519 9.43606 45.8582 9.73006C46.1646 10.0101 46.3177 10.3671 46.3177 10.8011C46.3177 11.2631 46.1646 11.6551 45.8582 11.9771C45.5652 12.2851 45.1856 12.4391 44.7194 12.4391Z" fill="#71717B"/>
<path d="M52.5309 25.6481C51.6651 25.6481 50.8194 25.5291 49.9935 25.2911C49.1677 25.0531 48.5084 24.7521 48.0156 24.3881L48.9746 22.3931C49.4541 22.7291 50.0268 23.0021 50.6928 23.2121C51.3721 23.4081 52.0381 23.5061 52.6907 23.5061C54.1825 23.5061 54.9284 23.0931 54.9284 22.2671C54.9284 21.8751 54.7353 21.6021 54.349 21.4481C53.9761 21.2941 53.37 21.1471 52.5309 21.0071C51.6518 20.8671 50.9326 20.7061 50.3732 20.5241C49.8271 20.3421 49.3476 20.0271 48.9347 19.5791C48.5351 19.1171 48.3353 18.4801 48.3353 17.6681C48.3353 16.6041 48.7548 15.7571 49.594 15.1271C50.4464 14.4831 51.5919 14.1611 53.0304 14.1611C53.7629 14.1611 54.4955 14.2521 55.2281 14.4341C55.9607 14.6021 56.56 14.8331 57.0262 15.1271L56.0672 17.1221C55.1615 16.5621 54.1426 16.2821 53.0104 16.2821C52.2778 16.2821 51.7184 16.4011 51.3322 16.6391C50.9592 16.8631 50.7727 17.1641 50.7727 17.5421C50.7727 17.9621 50.9725 18.2631 51.3721 18.4451C51.785 18.6131 52.4177 18.7741 53.2701 18.9281C54.1226 19.0681 54.8218 19.2291 55.3679 19.4111C55.914 19.5931 56.3802 19.9011 56.7665 20.3351C57.1661 20.7691 57.3659 21.3851 57.3659 22.1831C57.3659 23.2331 56.933 24.0731 56.0672 24.7031C55.2014 25.3331 54.0227 25.6481 52.5309 25.6481Z" fill="#71717B"/>
<path d="M69.3113 14.2871L64.3166 26.4041C63.8504 27.6221 63.2843 28.4761 62.6183 28.9661C61.9524 29.4701 61.1465 29.7221 60.2009 29.7221C59.6681 29.7221 59.142 29.6311 58.6225 29.4491C58.103 29.2671 57.6768 29.0151 57.3438 28.6931L58.3428 26.7611C58.5825 26.9991 58.8622 27.1881 59.1819 27.3281C59.5149 27.4681 59.8479 27.5381 60.1809 27.5381C60.6204 27.5381 60.98 27.4191 61.2598 27.1811C61.5528 26.9431 61.8192 26.5441 62.0589 25.9841L62.2387 25.5431L57.5836 14.2871H60.1809L63.5374 22.5821L66.9138 14.2871H69.3113Z" fill="#71717B"/>
<path d="M76.7849 14.1611C77.8239 14.1611 78.7496 14.3991 79.5621 14.8751C80.3879 15.3511 81.0338 16.0231 81.5 16.8911C81.9662 17.7591 82.1993 18.7601 82.1993 19.8941C82.1993 21.0281 81.9662 22.0361 81.5 22.9181C81.0338 23.7861 80.3879 24.4581 79.5621 24.9341C78.7496 25.4101 77.8239 25.6481 76.7849 25.6481C75.3464 25.6481 74.2076 25.1441 73.3685 24.1361V29.5751H70.8711V14.2871H73.2486V15.7571C73.6615 15.2251 74.1677 14.8261 74.7671 14.5601C75.3798 14.2941 76.0524 14.1611 76.7849 14.1611ZM76.5052 23.4011C77.4243 23.4011 78.1768 23.0791 78.7629 22.4351C79.3623 21.7911 79.6619 20.9441 79.6619 19.8941C79.6619 18.8441 79.3623 17.9971 78.7629 17.3531C78.1768 16.7091 77.4243 16.3871 76.5052 16.3871C75.9059 16.3871 75.3664 16.5341 74.8869 16.8281C74.4074 17.1081 74.0278 17.5141 73.7481 18.0461C73.4684 18.5781 73.3286 19.1941 73.3286 19.8941C73.3286 20.5941 73.4684 21.2101 73.7481 21.7421C74.0278 22.2741 74.4074 22.6871 74.8869 22.9811C75.3664 23.2611 75.9059 23.4011 76.5052 23.4011Z" fill="#71717B"/>
<path d="M90.6239 14.1611C91.9692 14.1611 93.0481 14.5741 93.8606 15.4001C94.6731 16.2261 95.0793 17.4511 95.0793 19.0751V25.5011H92.5819V19.4111C92.5819 18.4311 92.3621 17.6961 91.9226 17.2061C91.4831 16.7021 90.857 16.4501 90.0446 16.4501C89.1255 16.4501 88.3996 16.7441 87.8668 17.3321C87.334 17.9061 87.0677 18.7391 87.0677 19.8311V25.5011H84.5703V9.91907H87.0677V15.5891C87.4806 15.1271 87.9867 14.7771 88.5861 14.5391C89.1988 14.2871 89.8781 14.1611 90.6239 14.1611Z" fill="#71717B"/>
<path d="M108.573 14.2871V25.5011H106.195V24.0731C105.796 24.5771 105.296 24.9691 104.697 25.2491C104.098 25.5151 103.452 25.6481 102.759 25.6481C101.334 25.6481 100.208 25.2351 99.3828 24.4091C98.5703 23.5691 98.1641 22.3301 98.1641 20.6921V14.2871H100.661V20.3351C100.661 21.3431 100.874 22.0991 101.301 22.6031C101.74 23.0931 102.359 23.3381 103.159 23.3381C104.051 23.3381 104.757 23.0511 105.276 22.4771C105.809 21.8891 106.076 21.0491 106.076 19.9571V14.2871H108.573Z" fill="#71717B"/>
<path d="M115.14 25.6481C114.275 25.6481 113.429 25.5291 112.603 25.2911C111.777 25.0531 111.118 24.7521 110.625 24.3881L111.584 22.3931C112.064 22.7291 112.636 23.0021 113.302 23.2121C113.982 23.4081 114.648 23.5061 115.3 23.5061C116.792 23.5061 117.538 23.0931 117.538 22.2671C117.538 21.8751 117.345 21.6021 116.958 21.4481C116.586 21.2941 115.979 21.1471 115.14 21.0071C114.261 20.8671 113.542 20.7061 112.983 20.5241C112.437 20.3421 111.957 20.0271 111.544 19.5791C111.145 19.1171 110.945 18.4801 110.945 17.6681C110.945 16.6041 111.364 15.7571 112.203 15.1271C113.056 14.4831 114.201 14.1611 115.64 14.1611C116.372 14.1611 117.105 14.2521 117.838 14.4341C118.57 14.6021 119.169 14.8331 119.636 15.1271L118.677 17.1221C117.771 16.5621 116.752 16.2821 115.62 16.2821C114.887 16.2821 114.328 16.4011 113.942 16.6391C113.569 16.8631 113.382 17.1641 113.382 17.5421C113.382 17.9621 113.582 18.2631 113.982 18.4451C114.394 18.6131 115.027 18.7741 115.88 18.9281C116.732 19.0681 117.431 19.2291 117.977 19.4111C118.523 19.5931 118.99 19.9011 119.376 20.3351C119.776 20.7691 119.975 21.3851 119.975 22.1831C119.975 23.2331 119.542 24.0731 118.677 24.7031C117.811 25.3331 116.632 25.6481 115.14 25.6481Z" fill="#71717B"/>
</svg>
