<svg width="161" height="40" viewBox="0 0 161 40" fill="none" xmlns="http://www.w3.org/2000/svg">
<path opacity="0.8" d="M18.9952 21.6676C18.5923 16.5347 14.5013 12.501 9.51389 12.501C4.25951 12.501 0 16.9781 0 22.501C0 28.0238 4.25951 32.501 9.51389 32.501H23.7847V21.6676H18.9952Z" fill="#71717B"/>
<path d="M22.9901 32.501C29.558 32.501 34.8825 26.9046 34.8825 20.001C34.8825 13.0974 29.558 7.50101 22.9901 7.50101C16.4221 7.50101 11.0977 13.0974 11.0977 20.001C11.0977 26.9046 16.4221 32.501 22.9901 32.501Z" fill="#71717B"/>
<path d="M41.9375 20.167C41.9375 18.5026 42.2408 17.0481 42.8476 15.8037C43.4692 14.5437 44.3498 13.5715 45.4893 12.887C46.6437 12.2026 47.9978 11.8604 49.5517 11.8604C50.7653 11.8604 51.853 12.1092 52.815 12.607C53.777 13.1048 54.5539 13.8048 55.1459 14.707C55.7379 15.6092 56.0931 16.6515 56.2115 17.8337H52.8816C52.6892 16.9004 52.2822 16.1692 51.6606 15.6404C51.0539 15.0959 50.2917 14.8237 49.3741 14.8237C48.131 14.8237 47.1468 15.3137 46.4217 16.2937C45.6965 17.2737 45.3339 18.5648 45.3339 20.167C45.3339 21.7537 45.6965 23.0448 46.4217 24.0404C47.1468 25.0204 48.131 25.5104 49.3741 25.5104C50.2917 25.5104 51.0539 25.2459 51.6606 24.717C52.2822 24.1726 52.6892 23.4337 52.8816 22.5004H56.2115C56.0931 23.6826 55.7379 24.7248 55.1459 25.627C54.5539 26.5292 53.777 27.2292 52.815 27.727C51.853 28.2248 50.7653 28.4737 49.5517 28.4737C47.9978 28.4737 46.6437 28.1315 45.4893 27.447C44.3498 26.7626 43.4692 25.7981 42.8476 24.5537C42.2408 23.2937 41.9375 21.8315 41.9375 20.167Z" fill="#71717B"/>
<path d="M57.0156 12.0004H60.1457V28.3337H57.0156V12.0004Z" fill="#71717B"/>
<path d="M67.0081 28.4737C65.8094 28.4737 64.7512 28.2248 63.8337 27.727C62.9309 27.2137 62.2279 26.4904 61.7247 25.557C61.2364 24.6237 60.9922 23.5504 60.9922 22.337C60.9922 21.1237 61.2364 20.0504 61.7247 19.117C62.2279 18.1837 62.9309 17.4681 63.8337 16.9704C64.7512 16.457 65.8094 16.2004 67.0081 16.2004C68.2069 16.2004 69.2576 16.457 70.1604 16.9704C71.078 17.4681 71.7809 18.1837 72.2693 19.117C72.7725 20.0504 73.0241 21.1237 73.0241 22.337C73.0241 23.5659 72.7725 24.647 72.2693 25.5804C71.7809 26.4981 71.078 27.2137 70.1604 27.727C69.2576 28.2248 68.2069 28.4737 67.0081 28.4737ZM67.0081 25.7904C67.8813 25.7904 68.5695 25.4715 69.0726 24.8337C69.5906 24.1959 69.8496 23.3637 69.8496 22.337C69.8496 21.3104 69.5906 20.4781 69.0726 19.8404C68.5695 19.2026 67.8813 18.8837 67.0081 18.8837C66.1498 18.8837 65.4616 19.2026 64.9436 19.8404C64.4404 20.4781 64.1888 21.3104 64.1888 22.337C64.1888 23.3637 64.4404 24.1959 64.9436 24.8337C65.4616 25.4715 66.1498 25.7904 67.0081 25.7904Z" fill="#71717B"/>
<path d="M84.6043 16.3404V28.3337H81.8294L81.5408 26.887C81.1413 27.3848 80.6751 27.7737 80.1423 28.0537C79.6094 28.3337 78.9584 28.4737 78.1888 28.4737C76.8568 28.4737 75.7691 28.0459 74.9255 27.1904C74.082 26.3192 73.6602 24.8726 73.6602 22.8504V16.3404H76.7902V22.4537C76.7902 23.5426 76.9678 24.367 77.323 24.927C77.693 25.4715 78.2554 25.7437 79.0101 25.7437C79.7945 25.7437 80.4013 25.4404 80.8305 24.8337C81.2597 24.2115 81.4742 23.3481 81.4742 22.2437V16.3404H84.6043Z" fill="#71717B"/>
<path d="M97.3035 12.0004V28.3337H94.573L94.2622 26.677C93.389 27.8748 92.2051 28.4737 90.7104 28.4737C89.704 28.4737 88.8012 28.2248 88.0021 27.727C87.2029 27.2137 86.5739 26.4904 86.1151 25.557C85.6712 24.6237 85.4492 23.5426 85.4492 22.3137C85.4492 21.1004 85.6712 20.0348 86.1151 19.117C86.5739 18.1837 87.2029 17.4681 88.0021 16.9704C88.816 16.457 89.7262 16.2004 90.7326 16.2004C92.2125 16.2004 93.3594 16.7448 94.1734 17.8337V12.0004H97.3035ZM91.4429 25.7904C92.2865 25.7904 92.9599 25.4792 93.463 24.857C93.9662 24.2192 94.2178 23.387 94.2178 22.3604C94.2178 21.3181 93.9662 20.4781 93.463 19.8404C92.9599 19.2026 92.2865 18.8837 91.4429 18.8837C90.5994 18.8837 89.9186 19.2026 89.4006 19.8404C88.8974 20.4781 88.6458 21.3104 88.6458 22.337C88.6458 23.3637 88.8974 24.1959 89.4006 24.8337C89.9186 25.4715 90.5994 25.7904 91.4429 25.7904Z" fill="#71717B"/>
<path d="M97.7109 12.0004L101.152 11.977L104.016 23.9237L107.057 12.0004H110.054L113.006 23.9237L115.937 12.0004H119.311L115.004 28.3337H111.164L108.478 17.4837L105.858 28.3337H102.018L97.7109 12.0004Z" fill="#71717B"/>
<path d="M129.754 25.557V28.3337H128.156C126.721 28.3337 126.018 27.6804 126.047 26.3737C125.633 27.0581 125.122 27.5792 124.515 27.937C123.909 28.2948 123.176 28.4737 122.318 28.4737C121.045 28.4737 120.016 28.1704 119.232 27.5637C118.463 26.9415 118.078 26.0704 118.078 24.9504C118.078 23.6748 118.522 22.6948 119.41 22.0104C120.312 21.3104 121.615 20.9604 123.317 20.9604H125.581V20.377C125.581 19.8326 125.389 19.4048 125.004 19.0937C124.619 18.767 124.101 18.6037 123.45 18.6037C122.873 18.6037 122.399 18.7359 122.029 19.0004C121.659 19.2648 121.437 19.6226 121.363 20.0737H118.344C118.448 18.8448 118.966 17.8959 119.898 17.227C120.83 16.5426 122.066 16.2004 123.605 16.2004C125.218 16.2004 126.462 16.5737 127.335 17.3204C128.223 18.067 128.667 19.1481 128.667 20.5637V24.787C128.667 25.0826 128.726 25.2848 128.844 25.3937C128.963 25.5026 129.148 25.557 129.399 25.557H129.754ZM125.581 23.1537H123.295C122.643 23.1537 122.133 23.2937 121.763 23.5737C121.408 23.8381 121.23 24.2192 121.23 24.717C121.23 25.137 121.378 25.4715 121.674 25.7204C121.985 25.9692 122.399 26.0937 122.917 26.0937C123.731 26.0937 124.375 25.8526 124.848 25.3704C125.322 24.8726 125.566 24.2115 125.581 23.387V23.1537Z" fill="#71717B"/>
<path d="M130.809 19.117H128.922V16.3404H130.809V12.9804H133.939V16.3404H136.536V19.117H133.939V24.367C133.939 24.787 134.02 25.0904 134.183 25.277C134.361 25.4637 134.649 25.557 135.049 25.557H136.67V28.3337H134.072C131.897 28.3337 130.809 27.1904 130.809 24.9037V19.117Z" fill="#71717B"/>
<path d="M147.894 23.7837C147.687 25.2459 147.095 26.397 146.118 27.237C145.156 28.0615 143.906 28.4737 142.367 28.4737C141.183 28.4737 140.147 28.2248 139.259 27.727C138.371 27.2137 137.683 26.4904 137.194 25.557C136.721 24.6237 136.484 23.5504 136.484 22.337C136.484 21.1081 136.721 20.0348 137.194 19.117C137.683 18.1837 138.371 17.4681 139.259 16.9704C140.161 16.457 141.205 16.2004 142.389 16.2004C143.913 16.2004 145.156 16.6126 146.118 17.437C147.08 18.2459 147.672 19.3737 147.894 20.8204H144.653C144.52 20.2292 144.253 19.7626 143.854 19.4204C143.454 19.0626 142.959 18.8837 142.367 18.8837C141.553 18.8837 140.901 19.2026 140.413 19.8404C139.925 20.4781 139.68 21.3104 139.68 22.337C139.68 23.3637 139.925 24.1959 140.413 24.8337C140.901 25.4715 141.553 25.7904 142.367 25.7904C142.973 25.7904 143.476 25.6115 143.876 25.2537C144.29 24.8959 144.557 24.4059 144.675 23.7837H147.894Z" fill="#71717B"/>
<path d="M155.204 16.2004C156.55 16.2004 157.653 16.6359 158.511 17.507C159.384 18.3781 159.821 19.817 159.821 21.8237V28.3337H156.691V21.9637C156.691 20.9681 156.498 20.2137 156.114 19.7004C155.729 19.1715 155.152 18.907 154.382 18.907C153.583 18.907 152.954 19.1948 152.495 19.7704C152.051 20.3459 151.829 21.147 151.829 22.1737V28.3337H148.699V12.0004H151.829V17.8104C152.673 16.737 153.798 16.2004 155.204 16.2004Z" fill="#71717B"/>
</svg>
