<svg width="104" height="27" viewBox="0 0 104 27" fill="none" xmlns="http://www.w3.org/2000/svg">
<path d="M30 25.215V10.7861H36.115V25.1779L30 25.215Z" fill="#191B21"/>
<path d="M38.9931 25.1779V21.4314L50.6201 6.91923H39.1654V2.35457H57.4671V6.10104L45.7971 20.6132H57.7685V25.1779H38.9931Z" fill="#191B21"/>
<path d="M70.5521 25.5224C63.9204 25.5224 58.8821 20.6563 58.8821 13.7662C58.8821 6.87617 63.9204 2.01007 70.5521 2.01007C77.1838 2.01007 82.2221 6.87617 82.2221 13.7662C82.2221 20.6563 77.1838 25.5224 70.5521 25.5224ZM64.2219 13.7662C64.2219 18.0725 66.8487 20.8716 70.5521 20.8716C74.2555 20.8716 76.8823 18.0725 76.8823 13.7662C76.8823 9.45994 74.2555 6.66085 70.5521 6.66085C66.8487 6.66085 64.2219 9.45994 64.2219 13.7662Z" fill="#191B21"/>
<path d="M33 2C31.3704 2 30 3.29936 30 5.01911C30 6.73885 31.3704 8 33 8C34.6296 8 36 6.73885 36 5.01911C36 3.29936 34.6296 2 33 2Z" fill="#191B21"/>
<path fill-rule="evenodd" clip-rule="evenodd" d="M89.5636 2.38955L96.4449 13.4944L89.1155 25.1738L82.2029 25.1779L89.8761 13.4984L82.6814 2.38955H89.5636Z" fill="url(#paint0_linear_631_65)"/>
<path fill-rule="evenodd" clip-rule="evenodd" d="M98.0809 16.0121L103.821 25.1562L97.1978 25.1514L94.8682 21.11L98.0809 16.0121Z" fill="#191B21"/>
<path d="M103.461 2.37991L98.1006 10.9478L94.7664 5.63125L96.5846 2.37991H103.461Z" fill="#191B21"/>
<path d="M12.8776 18.1762C13.2215 15.5019 15.4273 13.4553 18.1198 13.3123C21.3156 13.1426 24 15.6881 24 18.8885V19.1592C24 22.385 21.385 25 18.1592 25H12L12.8776 18.1762Z" fill="url(#paint1_linear_631_65)"/>
<path d="M14.8451 6.90216C15.2254 9.55848 17.4349 11.5727 20.1149 11.7064L20.3699 11.7191C23.4329 11.8719 26 9.42968 26 6.3629C26 3.40105 23.5989 0.999999 20.6371 0.999999H14L14.8451 6.90216Z" fill="#191B21"/>
<path d="M4.37511 1.85568C4.44677 1.36433 4.8681 0.999985 5.36465 0.999985L8.9999 0.999985C10.9557 1.15591 12.3681 2.93911 12.072 4.87867L8.9999 25L2.15641 25C1.54668 25 1.07889 24.459 1.16687 23.8557L4.37511 1.85568Z" fill="url(#paint2_linear_631_65)"/>
<defs>
<linearGradient id="paint0_linear_631_65" x1="92.9686" y1="2.37991" x2="92.9686" y2="25.1779" gradientUnits="userSpaceOnUse">
<stop stop-color="#8348FF"/>
<stop offset="1" stop-color="#4F2B99"/>
</linearGradient>
<linearGradient id="paint1_linear_631_65" x1="22.608" y1="17.1" x2="12.5086" y2="17.2097" gradientUnits="userSpaceOnUse">
<stop stop-color="#8348FF"/>
<stop offset="1" stop-color="#402C71"/>
</linearGradient>
<linearGradient id="paint2_linear_631_65" x1="8.7098" y1="0.683378" x2="4.91068" y2="25.23" gradientUnits="userSpaceOnUse">
<stop stop-color="#8348FF"/>
<stop offset="1" stop-color="#4F2B99"/>
</linearGradient>
</defs>
</svg>
