<svg width="683" height="175" viewBox="0 0 683 175" fill="none" xmlns="http://www.w3.org/2000/svg">
<mask id="mask0_78_102" style="mask-type:alpha" maskUnits="userSpaceOnUse" x="0" y="0" width="683" height="175">
<path d="M0 172.671V2.3289H68.4537C81.0313 2.3289 91.522 4.18647 99.9256 7.90162C108.329 11.6168 114.646 16.7736 118.876 23.3721C123.105 29.9152 125.22 37.4564 125.22 45.9957C125.22 52.6497 123.884 58.4997 121.213 63.5456C118.542 68.5361 114.869 72.6394 110.194 75.8555C105.574 79.0162 100.287 81.2619 94.3325 82.5927V84.2562C100.844 84.5334 106.938 86.3633 112.615 89.7457C118.347 93.1282 122.994 97.8691 126.556 103.969C130.118 110.013 131.899 117.221 131.899 125.594C131.899 134.632 129.645 142.7 125.137 149.798C120.684 156.84 114.089 162.413 105.352 166.516C96.6143 170.619 85.8453 172.671 73.0451 172.671H0ZM36.1469 143.227H65.6153C75.6886 143.227 83.0349 141.314 87.6541 137.488C92.2733 133.607 94.5829 128.45 94.5829 122.018C94.5829 117.304 93.442 113.146 91.1602 109.541C88.8785 105.937 85.6227 103.109 81.3931 101.058C77.2191 99.0059 72.2381 97.98 66.4501 97.98H36.1469V143.227ZM36.1469 73.6098H62.944C67.8971 73.6098 72.2937 72.7503 76.1338 71.0314C80.0296 69.257 83.0905 66.7617 85.3166 63.5456C87.5984 60.3295 88.7393 56.4758 88.7393 51.9843C88.7393 45.8294 86.541 40.8666 82.1444 37.096C77.8034 33.3254 71.6259 31.4401 63.6118 31.4401H36.1469V73.6098Z" fill="#F5F8FF"/>
<path d="M189.251 2.3289V172.671H153.104V2.3289H189.251Z" fill="#F5F8FF"/>
<path d="M214.84 172.671V151.295L300.156 32.0223H214.673V2.3289H345.57V23.7048L260.17 142.978H345.737V172.671H214.84Z" fill="#F5F8FF"/>
<path d="M520.233 87.5C520.233 106.076 516.699 121.879 509.631 134.91C502.618 147.94 493.046 157.894 480.914 164.769C468.837 171.59 455.257 175 440.175 175C424.982 175 411.347 171.562 399.27 164.686C387.193 157.811 377.649 147.857 370.636 134.827C363.624 121.796 360.118 106.02 360.118 87.5C360.118 68.9243 363.624 53.121 370.636 40.0903C377.649 27.0596 387.193 17.134 399.27 10.3137C411.347 3.4379 424.982 0 440.175 0C455.257 0 468.837 3.4379 480.914 10.3137C493.046 17.134 502.618 27.0596 509.631 40.0903C516.699 53.121 520.233 68.9243 520.233 87.5ZM483.585 87.5C483.585 75.4674 481.776 65.32 478.159 57.058C474.597 48.796 469.56 42.5301 463.049 38.2605C456.538 33.9908 448.913 31.856 440.175 31.856C431.438 31.856 423.813 33.9908 417.302 38.2605C410.79 42.5301 405.726 48.796 402.108 57.058C398.547 65.32 396.766 75.4674 396.766 87.5C396.766 99.5326 398.547 109.68 402.108 117.942C405.726 126.204 410.79 132.47 417.302 136.74C423.813 141.009 431.438 143.144 440.175 143.144C448.913 143.144 456.538 141.009 463.049 136.74C469.56 132.47 474.597 126.204 478.159 117.942C481.776 109.68 483.585 99.5326 483.585 87.5Z" fill="#F5F8FF"/>
<path d="M570.552 2.3289L605.03 60.385H606.365L641.01 2.3289H681.831L629.656 87.5L683 172.671H641.427L606.365 114.532H605.03L569.968 172.671H528.562L582.073 87.5L529.564 2.3289H570.552Z" fill="#F5F8FF"/>
</mask>
<g mask="url(#mask0_78_102)">
<path d="M0 172.671V2.3289H68.4537C81.0313 2.3289 91.522 4.18647 99.9256 7.90162C108.329 11.6168 114.646 16.7736 118.876 23.3721C123.105 29.9152 125.22 37.4564 125.22 45.9957C125.22 52.6497 123.884 58.4997 121.213 63.5456C118.542 68.5361 114.869 72.6394 110.194 75.8555C105.574 79.0162 100.287 81.2619 94.3325 82.5927V84.2562C100.844 84.5334 106.938 86.3633 112.615 89.7457C118.347 93.1282 122.994 97.8691 126.556 103.969C130.118 110.013 131.899 117.221 131.899 125.594C131.899 134.632 129.645 142.7 125.137 149.798C120.684 156.84 114.089 162.413 105.352 166.516C96.6143 170.619 85.8453 172.671 73.0451 172.671H0ZM36.1469 143.227H65.6153C75.6886 143.227 83.0349 141.314 87.6541 137.488C92.2733 133.607 94.5829 128.45 94.5829 122.018C94.5829 117.304 93.442 113.146 91.1602 109.541C88.8785 105.937 85.6227 103.109 81.3931 101.058C77.2191 99.0059 72.2381 97.98 66.4501 97.98H36.1469V143.227ZM36.1469 73.6098H62.944C67.8971 73.6098 72.2937 72.7503 76.1338 71.0314C80.0296 69.257 83.0905 66.7617 85.3166 63.5456C87.5984 60.3295 88.7393 56.4758 88.7393 51.9843C88.7393 45.8294 86.541 40.8666 82.1444 37.096C77.8034 33.3254 71.6259 31.4401 63.6118 31.4401H36.1469V73.6098Z" fill="#F5F8FF"/>
<path d="M189.251 2.3289V172.671H153.104V2.3289H189.251Z" fill="#F5F8FF"/>
<path d="M214.84 172.671V151.295L300.156 32.0223H214.673V2.3289H345.57V23.7048L260.17 142.978H345.737V172.671H214.84Z" fill="#F5F8FF"/>
<path d="M520.233 87.5C520.233 106.076 516.699 121.879 509.631 134.91C502.618 147.94 493.046 157.894 480.914 164.769C468.837 171.59 455.257 175 440.175 175C424.982 175 411.347 171.562 399.27 164.686C387.193 157.811 377.649 147.857 370.636 134.827C363.624 121.796 360.118 106.02 360.118 87.5C360.118 68.9243 363.624 53.121 370.636 40.0903C377.649 27.0596 387.193 17.134 399.27 10.3137C411.347 3.4379 424.982 0 440.175 0C455.257 0 468.837 3.4379 480.914 10.3137C493.046 17.134 502.618 27.0596 509.631 40.0903C516.699 53.121 520.233 68.9243 520.233 87.5ZM483.585 87.5C483.585 75.4674 481.776 65.32 478.159 57.058C474.597 48.796 469.56 42.5301 463.049 38.2605C456.538 33.9908 448.913 31.856 440.175 31.856C431.438 31.856 423.813 33.9908 417.302 38.2605C410.79 42.5301 405.726 48.796 402.108 57.058C398.547 65.32 396.766 75.4674 396.766 87.5C396.766 99.5326 398.547 109.68 402.108 117.942C405.726 126.204 410.79 132.47 417.302 136.74C423.813 141.009 431.438 143.144 440.175 143.144C448.913 143.144 456.538 141.009 463.049 136.74C469.56 132.47 474.597 126.204 478.159 117.942C481.776 109.68 483.585 99.5326 483.585 87.5Z" fill="#F5F8FF"/>
<path d="M570.552 2.3289L605.03 60.385H606.365L641.01 2.3289H681.831L629.656 87.5L683 172.671H641.427L606.365 114.532H605.03L569.968 172.671H528.562L582.073 87.5L529.564 2.3289H570.552Z" fill="#F5F8FF"/>
<path d="M154.669 100.797C32.4055 43.3091 -19.3868 114.887 -30 157.862L-20.6931 240.29C239.248 285.379 754.82 337.724 737.578 186.395C716.025 -2.76628 528.417 49.0152 474.045 83.8885C419.672 118.762 307.499 172.657 154.669 100.797Z" fill="url(#paint0_linear_78_102)"/>
</g>
<defs>
<linearGradient id="paint0_linear_78_102" x1="-21.6727" y1="160.504" x2="625.262" y2="74.8917" gradientUnits="userSpaceOnUse">
<stop stop-color="#E9792F"/>
<stop offset="0.615385" stop-color="#FDE14D"/>
<stop offset="1" stop-color="#33A8D4"/>
</linearGradient>
</defs>
</svg>
