<svg width="104" height="27" viewBox="0 0 104 27" fill="none" xmlns="http://www.w3.org/2000/svg">
<path d="M29.21 25.1605V10.7316H35.325V25.1234L29.21 25.1605Z" fill="black"/>
<path d="M38.2031 25.1234V21.3769L49.83 6.86476H38.3753V2.3001H56.677V6.04656L45.007 20.5587H56.9785V25.1234H38.2031Z" fill="black"/>
<path d="M69.7621 25.4679C63.1304 25.4679 58.092 20.6018 58.092 13.7117C58.092 6.82169 63.1304 1.9556 69.7621 1.9556C76.3937 1.9556 81.4321 6.82169 81.4321 13.7117C81.4321 20.6018 76.3937 25.4679 69.7621 25.4679ZM63.4318 13.7117C63.4318 18.018 66.0587 20.8171 69.7621 20.8171C73.4655 20.8171 76.0923 18.018 76.0923 13.7117C76.0923 9.40546 73.4655 6.60638 69.7621 6.60638C66.0587 6.60638 63.4318 9.40546 63.4318 13.7117Z" fill="black"/>
<path d="M32.21 1.94553C30.5803 1.94553 29.21 3.24489 29.21 4.96463C29.21 6.68438 30.5803 7.94553 32.21 7.94553C33.8396 7.94553 35.21 6.68438 35.21 4.96463C35.21 3.24489 33.8396 1.94553 32.21 1.94553Z" fill="black"/>
<path fill-rule="evenodd" clip-rule="evenodd" d="M88.7733 2.33508L95.6546 13.4399L88.3252 25.1193L81.4126 25.1234L89.0859 13.444L81.8911 2.33508H88.7733Z" fill="black"/>
<path fill-rule="evenodd" clip-rule="evenodd" d="M97.2909 15.9576L103.031 25.1017L96.4077 25.0969L94.0781 21.0556L97.2909 15.9576Z" fill="black"/>
<path d="M102.67 2.32544L97.3103 10.8934L93.9761 5.57678L95.7943 2.32544H102.67Z" fill="black"/>
<path d="M12.0876 18.1217C12.4315 15.4474 14.6373 13.4008 17.3298 13.2578C20.5256 13.0881 23.21 15.6337 23.21 18.834V19.1048C23.21 22.3305 20.595 24.9455 17.3692 24.9455H11.21L12.0876 18.1217Z" fill="#8348FF"/>
<path d="M14.055 6.84769C14.4354 9.504 16.6448 11.5182 19.3249 11.6519L19.5799 11.6647C22.6428 11.8175 25.21 9.37521 25.21 6.30842C25.21 3.34658 22.8089 0.945526 19.8471 0.945526H13.21L14.055 6.84769Z" fill="black"/>
<path d="M3.58483 1.80122C3.65648 1.30987 4.07782 0.945518 4.57437 0.945518L8.20962 0.945518C10.1654 1.10144 11.5778 2.88464 11.2817 4.8242L8.20962 24.9455L1.36612 24.9455C0.756402 24.9455 0.288605 24.4046 0.376589 23.8012L3.58483 1.80122Z" fill="#8348FF"/>
</svg>
