<svg width="103" height="25" viewBox="0 0 103 25" fill="none" xmlns="http://www.w3.org/2000/svg">
<path d="M28.8432 24.2152V9.78629H34.9582V24.1781L28.8432 24.2152Z" fill="white"/>
<path d="M37.8363 24.1781V20.4316L49.4633 5.91945H38.0086V1.3548H56.3103V5.10126L44.6402 19.6134H56.6117V24.1781H37.8363Z" fill="white"/>
<path d="M69.3953 24.5226C62.7636 24.5226 57.7253 19.6565 57.7253 12.7664C57.7253 5.87639 62.7636 1.01029 69.3953 1.01029C76.027 1.01029 81.0653 5.87639 81.0653 12.7664C81.0653 19.6565 76.027 24.5226 69.3953 24.5226ZM63.0651 12.7664C63.0651 17.0727 65.6919 19.8718 69.3953 19.8718C73.0987 19.8718 75.7255 17.0727 75.7255 12.7664C75.7255 8.46016 73.0987 5.66108 69.3953 5.66108C65.6919 5.66108 63.0651 8.46016 63.0651 12.7664Z" fill="white"/>
<path d="M31.8433 1.00022C30.2136 1.00022 28.8433 2.29958 28.8433 4.01933C28.8433 5.73908 30.2136 7.00022 31.8433 7.00022C33.4729 7.00022 34.8433 5.73908 34.8433 4.01933C34.8433 2.29958 33.4729 1.00022 31.8433 1.00022Z" fill="white"/>
<path fill-rule="evenodd" clip-rule="evenodd" d="M88.4067 1.38977L95.288 12.4946L87.9586 24.174L81.046 24.1781L88.7193 12.4987L81.5245 1.38977H88.4067Z" fill="white"/>
<path fill-rule="evenodd" clip-rule="evenodd" d="M96.9242 15.0123L102.665 24.1564L96.0411 24.1516L93.7115 20.1103L96.9242 15.0123Z" fill="white"/>
<path d="M102.304 1.38013L96.9437 9.94806L93.6094 4.63147L95.4277 1.38013H102.304Z" fill="white"/>
<path d="M7.84367 0C9.79928 0.156151 11.2111 1.93949 10.915 3.87891L7.84367 24H0.999924C0.390201 24 -0.0773188 23.4588 0.0106659 22.8555L3.21867 0.855469C3.29052 0.364367 3.71156 1.98179e-05 4.20793 0H7.84367ZM16.9628 12.3125C20.1586 12.1428 22.8437 14.6884 22.8437 17.8887V18.1592C22.8437 21.3849 20.2285 23.9999 17.0029 24H10.8437L11.7206 17.1768C12.0645 14.5026 14.2705 12.4557 16.9628 12.3125ZM19.4804 0C22.4422 0 24.8437 2.40144 24.8437 5.36328C24.8436 8.42999 22.2757 10.8725 19.2128 10.7197L18.9579 10.707C16.278 10.5732 14.0687 8.55855 13.6884 5.90234L12.8437 0H19.4804Z" fill="url(#paint0_linear_1_2031)"/>
<defs>
<linearGradient id="paint0_linear_1_2031" x1="-7.62939e-05" y1="12" x2="24.8436" y2="12" gradientUnits="userSpaceOnUse">
<stop stop-color="#E9792F"/>
<stop offset="0.615385" stop-color="#FDE14D"/>
<stop offset="1" stop-color="#33A8D4"/>
</linearGradient>
</defs>
</svg>
