<svg width="25" height="24" viewBox="0 0 25 24" fill="none" xmlns="http://www.w3.org/2000/svg">
<path d="M7.84367 0C9.79928 0.156151 11.2111 1.93949 10.915 3.87891L7.84367 24H0.999924C0.390201 24 -0.0773188 23.4588 0.0106659 22.8555L3.21867 0.855469C3.29052 0.364367 3.71156 1.98179e-05 4.20793 0H7.84367ZM16.9628 12.3125C20.1586 12.1428 22.8437 14.6884 22.8437 17.8887V18.1592C22.8437 21.3849 20.2285 23.9999 17.0029 24H10.8437L11.7206 17.1768C12.0645 14.5026 14.2705 12.4557 16.9628 12.3125ZM19.4804 0C22.4422 0 24.8437 2.40144 24.8437 5.36328C24.8436 8.42999 22.2757 10.8725 19.2128 10.7197L18.9579 10.707C16.278 10.5732 14.0687 8.55855 13.6884 5.90234L12.8437 0H19.4804Z" fill="url(#paint0_linear_49_270)"/>
<defs>
<linearGradient id="paint0_linear_49_270" x1="-7.62939e-05" y1="12" x2="24.8436" y2="12" gradientUnits="userSpaceOnUse">
<stop stop-color="#E9792F"/>
<stop offset="0.615385" stop-color="#FDE14D"/>
<stop offset="1" stop-color="#33A8D4"/>
</linearGradient>
</defs>
</svg>
