<svg width="26" height="27" viewBox="0 0 26 27" fill="none" xmlns="http://www.w3.org/2000/svg">
<path d="M12.0873 18.1217C12.4313 15.4474 14.637 13.4009 17.3295 13.2578C20.5254 13.0881 23.2097 15.6337 23.2097 18.834V19.1048C23.2097 22.3305 20.5947 24.9455 17.3689 24.9455H11.2097L12.0873 18.1217Z" fill="url(#paint0_linear_95_720)"/>
<path d="M14.0548 6.8477C14.4351 9.50401 16.6446 11.5182 19.3247 11.6519L19.5796 11.6647C22.6426 11.8175 25.2097 9.37522 25.2097 6.30843C25.2097 3.34658 22.8087 0.945533 19.8468 0.945533H13.2097L14.0548 6.8477Z" fill="#191B21"/>
<path d="M3.58483 1.80122C3.65648 1.30987 4.07782 0.945518 4.57437 0.945518L8.20962 0.945518C10.1654 1.10144 11.5778 2.88464 11.2817 4.8242L8.20962 24.9455L1.36612 24.9455C0.756402 24.9455 0.288605 24.4046 0.376589 23.8012L3.58483 1.80122Z" fill="url(#paint1_linear_95_720)"/>
<defs>
<linearGradient id="paint0_linear_95_720" x1="21.8177" y1="17.0455" x2="11.7183" y2="17.1552" gradientUnits="userSpaceOnUse">
<stop stop-color="#8348FF"/>
<stop offset="1" stop-color="#402C71"/>
</linearGradient>
<linearGradient id="paint1_linear_95_720" x1="7.91952" y1="0.628912" x2="4.12039" y2="25.1755" gradientUnits="userSpaceOnUse">
<stop stop-color="#8348FF"/>
<stop offset="1" stop-color="#4F2B99"/>
</linearGradient>
</defs>
</svg>
