<svg width="18" height="18" viewBox="0 0 18 18" fill="none" xmlns="http://www.w3.org/2000/svg">
<g clip-path="url(#clip0_2093_2851)">
<path d="M15.9123 12.5885C14.7869 11.6373 14.1416 10.2469 14.1416 8.77394V6.6988C14.1416 4.07957 12.1959 1.91139 9.67571 1.54817V0.744312C9.67571 0.332707 9.34226 0 8.9314 0C8.52054 0 8.18708 0.332707 8.18708 0.744312V1.54817C5.6661 1.91139 3.72122 4.07957 3.72122 6.6988V8.77394C3.72122 10.2469 3.0759 11.6373 1.9438 12.5945C1.65426 12.8424 1.48828 13.2026 1.48828 13.5837C1.48828 14.3019 2.07257 14.8862 2.79083 14.8862H15.072C15.7902 14.8862 16.3745 14.3019 16.3745 13.5837C16.3745 13.2026 16.2085 12.8424 15.9123 12.5885Z" fill="#191B21"/>
<path d="M8.92991 17.8633C10.2779 17.8633 11.4055 16.9024 11.6645 15.6304H6.19531C6.45433 16.9024 7.58196 17.8633 8.92991 17.8633Z" fill="#191B21"/>
</g>
<defs>
<clipPath id="clip0_2093_2851">
<rect width="17.8635" height="17.8635" fill="white"/>
</clipPath>
</defs>
</svg>
