<svg width="17" height="16" viewBox="0 0 17 16" fill="none" xmlns="http://www.w3.org/2000/svg">
<path d="M14.7054 4.50671L12.4587 13.5267C12.2987 14.2001 11.6987 14.6667 11.0054 14.6667H2.24537C1.23871 14.6667 0.518717 13.68 0.818717 12.7133L3.62538 3.70007C3.81871 3.07341 4.39872 2.64001 5.05205 2.64001H13.252C13.8854 2.64001 14.4121 3.02668 14.6321 3.56002C14.7587 3.84668 14.7854 4.17338 14.7054 4.50671Z" stroke="#191B21" stroke-width="1.5" stroke-miterlimit="10"/>
<path d="M10.7539 14.6667H13.9406C14.8006 14.6667 15.4739 13.94 15.4139 13.08L14.7539 4" stroke="#191B21" stroke-width="1.5" stroke-miterlimit="10" stroke-linecap="round" stroke-linejoin="round"/>
<path d="M6.53906 4.25338L7.2324 1.37341" stroke="#191B21" stroke-width="1.5" stroke-miterlimit="10" stroke-linecap="round" stroke-linejoin="round"/>
<path d="M11.0078 4.26001L11.6345 1.3667" stroke="#191B21" stroke-width="1.5" stroke-miterlimit="10" stroke-linecap="round" stroke-linejoin="round"/>
<path d="M5.21875 8H10.5521" stroke="#191B21" stroke-width="1.5" stroke-miterlimit="10" stroke-linecap="round" stroke-linejoin="round"/>
<path d="M4.55078 10.6666H9.88411" stroke="#191B21" stroke-width="1.5" stroke-miterlimit="10" stroke-linecap="round" stroke-linejoin="round"/>
</svg>
