<svg width="22" height="22" viewBox="0 0 22 22" fill="none" xmlns="http://www.w3.org/2000/svg">
<path d="M20.1663 2.97949H1.83301C1.45717 2.97949 1.14551 2.66783 1.14551 2.29199C1.14551 1.91616 1.45717 1.60449 1.83301 1.60449H20.1663C20.5422 1.60449 20.8538 1.91616 20.8538 2.29199C20.8538 2.66783 20.5422 2.97949 20.1663 2.97949Z" fill="url(#paint0_linear_381_607)"/>
<path d="M3.36377 2.29199V13.2645C3.36377 14.1628 3.78544 15.0153 4.5096 15.5562L9.28544 19.1312C10.3029 19.892 11.7054 19.892 12.7229 19.1312L17.4988 15.5562C18.2229 15.0153 18.6446 14.1628 18.6446 13.2645V2.29199H3.36377ZM14.6663 12.6045H7.33294C6.9571 12.6045 6.64544 12.2928 6.64544 11.917C6.64544 11.5412 6.9571 11.2295 7.33294 11.2295H14.6663C15.0421 11.2295 15.3538 11.5412 15.3538 11.917C15.3538 12.2928 15.0421 12.6045 14.6663 12.6045ZM14.6663 8.02116H7.33294C6.9571 8.02116 6.64544 7.70949 6.64544 7.33366C6.64544 6.95783 6.9571 6.64616 7.33294 6.64616H14.6663C15.0421 6.64616 15.3538 6.95783 15.3538 7.33366C15.3538 7.70949 15.0421 8.02116 14.6663 8.02116Z" fill="url(#paint1_linear_381_607)"/>
<defs>
<linearGradient id="paint0_linear_381_607" x1="18.5677" y1="2.07428" x2="2.37103" y2="4.59479" gradientUnits="userSpaceOnUse">
<stop stop-color="#8348FF"/>
<stop offset="1" stop-color="#402C71"/>
</linearGradient>
<linearGradient id="paint1_linear_381_607" x1="16.872" y1="8.24034" x2="4.01102" y2="8.3629" gradientUnits="userSpaceOnUse">
<stop stop-color="#8348FF"/>
<stop offset="1" stop-color="#402C71"/>
</linearGradient>
</defs>
</svg>
