<svg width="22" height="22" viewBox="0 0 22 22" fill="none" xmlns="http://www.w3.org/2000/svg">
<path opacity="0.1" d="M22 11C22 11.9387 20.8468 12.7123 20.6158 13.5777C20.3775 14.4723 20.9807 15.719 20.5278 16.5018C20.0677 17.2975 18.6835 17.3928 18.0382 18.0382C17.3928 18.6835 17.2975 20.0677 16.5018 20.5278C15.719 20.9807 14.4723 20.3775 13.5777 20.6158C12.7123 20.8468 11.9387 22 11 22C10.0613 22 9.28767 20.8468 8.42233 20.6158C7.52767 20.3775 6.281 20.9807 5.49817 20.5278C4.7025 20.0677 4.60717 18.6835 3.96183 18.0382C3.3165 17.3928 1.93233 17.2975 1.47217 16.5018C1.01933 15.719 1.6225 14.4723 1.38417 13.5777C1.15317 12.7123 0 11.9387 0 11C0 10.0613 1.15317 9.28767 1.38417 8.42233C1.6225 7.52767 1.01933 6.281 1.47217 5.49817C1.93233 4.7025 3.3165 4.60717 3.96183 3.96183C4.60717 3.3165 4.7025 1.93233 5.49817 1.47217C6.281 1.01933 7.52767 1.6225 8.42233 1.38417C9.28767 1.15317 10.0613 0 11 0C11.9387 0 12.7123 1.15317 13.5777 1.38417C14.4723 1.6225 15.719 1.01933 16.5018 1.47217C17.2975 1.93233 17.3928 3.3165 18.0382 3.96183C18.6835 4.60717 20.0677 4.7025 20.5278 5.49817C20.9807 6.281 20.3775 7.52767 20.6158 8.42233C20.8468 9.28767 22 10.0613 22 11Z" fill="#191B21"/>
<path d="M14.2596 8.37872L10.4493 12.0796L8.47408 10.1627C8.04534 9.74628 7.34967 9.74628 6.92092 10.1627C6.49218 10.5791 6.49218 11.2548 6.92092 11.6712L9.69192 14.3626C10.109 14.7677 10.7863 14.7677 11.2034 14.3626L15.8111 9.88725C16.2399 9.47083 16.2399 8.79515 15.8111 8.37872C15.3824 7.9623 14.6884 7.9623 14.2596 8.37872Z" fill="#191B21"/>
</svg>
