<svg width="118" height="118" viewBox="0 0 118 118" fill="none" xmlns="http://www.w3.org/2000/svg">
<path fill-rule="evenodd" clip-rule="evenodd" d="M63.2144 2.36C63.2144 1.05661 62.1577 0 60.8544 0H57.1457C55.8423 0 54.7857 1.05661 54.7857 2.36V25.1782C54.7857 27.7721 51.2093 28.4673 50.2376 26.0622L41.6897 4.90559C41.2015 3.6971 39.8259 3.11325 38.6175 3.60151L35.1789 4.99076C33.9705 5.47902 33.3866 6.8545 33.8748 8.063L42.9877 30.618C43.9507 33.0017 40.9487 34.9888 39.1307 33.1709L21.9294 15.9695C21.0078 15.0479 19.5135 15.0479 18.5918 15.9695L15.9695 18.5918C15.0479 19.5135 15.0479 21.0078 15.9695 21.9294L31.4163 37.3761C33.2602 39.2201 31.1923 42.2516 28.8026 41.2075L8.7848 32.4616C7.59041 31.9397 6.19919 32.4849 5.67735 33.6793L4.19256 37.0777C3.67073 38.2721 4.21593 39.6633 5.41031 40.1851L28.4769 50.2631C30.8202 51.2869 30.0892 54.7857 27.532 54.7857H2.36C1.05661 54.7857 0 55.8423 0 57.1457V60.8544C0 62.1577 1.05661 63.2144 2.36 63.2144H27.5319C30.0891 63.2144 30.8201 66.7131 28.4768 67.7367L5.41034 77.8151C4.21596 78.3367 3.67076 79.7279 4.19259 80.922L5.67738 84.3204C6.19919 85.5152 7.59047 86.0603 8.7848 85.5382L28.8026 76.7926C31.1923 75.7483 33.2602 78.7797 31.4163 80.6241L15.9695 96.0703C15.0479 96.9925 15.0479 98.4863 15.9695 99.4079L18.5919 102.03C19.5135 102.952 21.0078 102.952 21.9294 102.03L39.1307 84.829C40.9487 83.0112 43.9508 84.9983 42.9877 87.3819L33.8748 109.937C33.3866 111.145 33.9704 112.521 35.1789 113.009L38.6174 114.399C39.8259 114.887 41.2014 114.303 41.6897 113.094L50.2376 91.9379C51.2093 89.5325 54.7857 90.2281 54.7857 92.8217V115.64C54.7857 116.943 55.8423 118 57.1457 118H60.8544C62.1577 118 63.2144 116.943 63.2144 115.64V92.8217C63.2144 90.2281 66.7909 89.5325 67.7627 91.9379L76.31 113.094C76.7985 114.303 78.1738 114.887 79.3827 114.399L82.8212 113.009C84.0296 112.521 84.6137 111.145 84.1252 109.937L75.0126 87.3819C74.0491 84.9983 77.051 83.0112 78.8694 84.829L96.0703 102.03C96.9925 102.952 98.4863 102.952 99.4079 102.03L102.03 99.4079C102.952 98.4863 102.952 96.9925 102.03 96.0703L86.5837 80.6241C84.7399 78.7797 86.8079 75.7483 89.1974 76.7926L109.215 85.5382C110.41 86.0603 111.801 85.5152 112.322 84.3204L113.807 80.922C114.329 79.7279 113.784 78.3367 112.59 77.8151L89.523 67.7367C87.1802 66.7131 87.9106 63.2144 90.4682 63.2144H115.64C116.943 63.2144 118 62.1577 118 60.8544V57.1457C118 55.8423 116.943 54.7857 115.64 54.7857H90.4682C87.9106 54.7857 87.1796 51.2869 89.523 50.2631L112.59 40.1851C113.784 39.6633 114.329 38.272 113.807 37.0777L112.322 33.6793C111.801 32.4849 110.41 31.9397 109.215 32.4616L89.1974 41.2075C86.8079 42.2515 84.7399 39.2201 86.5837 37.3761L102.03 21.9294C102.952 21.0077 102.952 19.5135 102.03 18.5918L99.4079 15.9695C98.4863 15.0478 96.9925 15.0478 96.0703 15.9695L78.8694 33.1708C77.051 34.9887 74.0491 33.0016 75.0126 30.6179L84.1252 8.063C84.6137 6.8545 84.0296 5.47902 82.8212 4.99076L79.3827 3.60151C78.1738 3.11325 76.7985 3.6971 76.31 4.90559L67.7627 26.0622C66.7909 28.4673 63.2144 27.7721 63.2144 25.1782V2.36Z" fill="#8348FF"/>
</svg>
