<svg width="40" height="41" viewBox="0 0 40 41" fill="none" xmlns="http://www.w3.org/2000/svg">
<g clip-path="url(#clip0_1084_577)">
<path d="M38.9466 13.9667L23.6128 26.7067L22.9138 27.2882C21.2224 28.6853 18.7774 28.6853 17.086 27.2882L16.387 26.7067L1.05322 13.9667L6.93322 9.79846L13.9631 4.82006L16.1322 3.27819C16.1387 3.27819 16.1452 3.27166 16.1518 3.27166L17.086 2.60526C18.7747 1.20059 21.2251 1.20059 22.9138 2.60526L26.0367 4.82006L33.0666 9.79846L38.9466 13.9667Z" fill="#8348FF"/>
<path d="M37.6399 15.2736L22.3061 28.0136L22.2735 28.0398C20.7376 28.6292 19.003 28.3418 17.7393 27.2884L17.0403 26.707L1.70654 13.967L7.58654 9.79871L14.6164 4.82031L16.7855 3.27845C16.792 3.27845 16.7985 3.27191 16.8051 3.27191C18.3957 2.54393 20.2628 2.79289 21.6071 3.91218L24.73 6.12698L31.7599 11.1054L37.6399 15.2736Z" fill="#8348FF"/>
<path d="M33.0664 5.47342V32.2601H6.93311V5.47342C6.95517 5.09381 7.27846 4.80256 7.65831 4.82009H32.3412C32.7211 4.80256 33.0444 5.09381 33.0664 5.47342Z" fill="#8348FF"/>
<path d="M31.1064 5.47342V32.2601H6.93311V5.47342C6.95517 5.09381 7.27846 4.80256 7.65831 4.82009H30.3812C30.7611 4.80256 31.0844 5.09381 31.1064 5.47342Z" fill="#F5F5F5"/>
<path d="M38.9466 13.9668L38.9466 38.1401C38.9473 38.504 38.7928 38.851 38.5219 39.094C38.2851 39.322 37.9686 39.4486 37.6399 39.4468H2.35989C2.03115 39.4486 1.71469 39.322 1.47789 39.094C1.207 38.851 1.05253 38.504 1.05322 38.1401L1.05322 13.9668L16.387 26.7068L17.086 27.2883C18.7778 28.6841 21.2219 28.6841 22.9138 27.2883L23.6128 26.7068L36.9866 15.5936L38.9466 13.9668Z" fill="#8348FF"/>
<path d="M36.9866 15.5936V38.1401C36.9873 38.5041 36.8328 38.851 36.5619 39.094C36.3251 39.322 36.0086 39.4486 35.6799 39.4468H2.35989C2.03115 39.4486 1.71469 39.322 1.47789 39.094C1.207 38.851 1.05253 38.5041 1.05322 38.1401L1.05322 13.3135L14.427 25.1453L15.126 25.7268C16.2432 26.6545 17.6871 27.8771 19.0199 27.5765C20.3527 27.8771 21.7966 28.216 22.9138 27.2883L23.6128 26.7068L36.9866 15.5936Z" fill="#8348FF"/>
<path d="M38.522 39.0942C38.2852 39.3223 37.9688 39.4489 37.64 39.447H2.36003C2.03129 39.4489 1.71482 39.3223 1.47803 39.0942L15.4202 27.5106L16.3871 26.707L17.0862 27.2885C18.6716 28.5968 20.9347 28.6877 22.6199 27.5106C22.7179 27.4388 22.8159 27.3669 22.9139 27.2885L23.613 26.707L38.522 39.0942Z" fill="#8348FF"/>
<path d="M36.562 39.0943C36.3252 39.3224 36.0088 39.449 35.68 39.4471H2.36003C2.03129 39.449 1.71482 39.3224 1.47803 39.0943L15.4202 27.5107C16.4648 28.2478 17.7724 28.5089 19.02 28.2294C20.2676 28.5089 21.5752 28.2478 22.6199 27.5107L36.562 39.0943Z" fill="#8348FF"/>
<path d="M20.8087 23.1069C19.3442 23.1001 17.8893 22.8707 16.4938 22.4265C14.2641 21.6805 12.6079 19.7929 12.1584 17.485C11.6665 15.1157 12.5629 12.6105 14.6173 10.612C14.8378 10.3973 15.0668 10.1916 15.3045 9.99502C17.408 8.23399 20.2439 7.62199 22.8864 8.35881C25.4447 9.17536 27.2125 11.5133 27.3009 14.1973C27.3967 15.7423 26.8931 17.2647 25.895 18.4479C25.1252 19.4176 23.8779 19.8756 22.6634 19.6346C22.1667 19.5315 21.7334 19.2307 21.4632 18.8014C21.2207 18.3845 21.1585 17.8867 21.2909 17.4229C21.8623 15.2632 22.4432 11.9812 22.4489 11.948C22.4895 11.7181 22.6496 11.5273 22.869 11.4474C23.0884 11.3676 23.3338 11.4109 23.5126 11.561C23.6914 11.7111 23.7766 11.9452 23.736 12.1751C23.7117 12.3117 23.1397 15.5445 22.5544 17.7569C22.5126 17.8795 22.5231 18.0139 22.5834 18.1285C22.6737 18.2535 22.81 18.3375 22.9623 18.362C23.7057 18.4861 24.4567 18.1878 24.9124 17.5875C25.6876 16.6602 26.0759 15.47 25.997 14.264C25.9331 12.1276 24.5321 10.2624 22.4981 9.60577C20.2779 8.99509 17.8993 9.51679 16.1385 11.0006C15.9286 11.1749 15.7244 11.3573 15.5285 11.5481C14.5129 12.536 12.891 14.5861 13.4375 17.219C13.8047 19.0584 15.1184 20.5659 16.8904 21.1811C19.9546 22.1586 24.3575 22.2763 26.6774 19.3918C26.9053 19.1173 27.3113 19.0764 27.5893 19.2999C27.8674 19.5235 27.9147 19.9288 27.6956 20.2103C25.9802 22.3437 23.3697 23.1069 20.8087 23.1069Z" fill="#111112"/>
<path d="M18.5724 19.7192C17.8818 19.7311 17.2082 19.5047 16.6651 19.078C15.4111 18.0744 15.3766 16.331 15.7281 15.1437C15.8465 14.7483 16.0055 14.3662 16.2025 14.0035C16.6927 13.0144 17.4766 12.201 18.4468 11.6744C19.655 11.0475 21.1312 11.2852 22.0815 12.2598C22.553 12.7765 22.9081 13.3883 23.123 14.0539C23.2367 14.3917 23.0588 14.7584 22.723 14.8779C22.3872 14.9975 22.0176 14.8259 21.8922 14.4922C21.7373 14.0005 21.4799 13.5472 21.1368 13.1623C20.5828 12.5957 19.7195 12.4667 19.0241 12.8468C18.2965 13.2571 17.7117 13.8801 17.3483 14.6323C17.1955 14.9141 17.0722 15.2108 16.9801 15.5179C16.7262 16.3767 16.782 17.4975 17.4826 18.0585C18.2485 18.6735 19.5406 18.4135 20.2676 17.7864C20.8093 17.2986 21.2748 16.7323 21.6485 16.1064C21.7695 15.9037 21.9905 15.782 22.2266 15.7881C22.4626 15.7943 22.677 15.9274 22.7873 16.1362C22.8975 16.345 22.8865 16.597 22.7585 16.7954C22.3159 17.533 21.7649 18.1997 21.1239 18.7733C20.4095 19.3761 19.5071 19.7106 18.5724 19.7192Z" fill="#111112"/>
<path d="M37.6399 40.0996H2.3599C1.27792 40.0984 0.401091 39.2216 0.399902 38.1396V13.9662C0.399913 13.7129 0.546391 13.4824 0.775754 13.3748C1.00512 13.2672 1.27601 13.3019 1.47085 13.4638L17.5018 26.7869C18.9523 27.9849 21.049 27.9845 22.499 26.786L38.5284 13.4638C38.7233 13.3016 38.9944 13.2667 39.2239 13.3743C39.4535 13.482 39.6001 13.7127 39.5999 13.9662V38.1396C39.5987 39.2216 38.7219 40.0984 37.6399 40.0996ZM1.70657 15.3587V38.1396C1.70704 38.5002 1.99927 38.7924 2.3599 38.7929H37.6399C38.0006 38.7926 38.2929 38.5003 38.2932 38.1396V15.3587L23.3333 27.7916C21.399 29.3902 18.6023 29.3906 16.6675 27.7926L1.70657 15.3587Z" fill="#111112"/>
<path d="M1.05388 14.6205C0.769303 14.6207 0.517296 14.4368 0.430834 14.1657C0.344373 13.8945 0.443347 13.5986 0.67553 13.4341L6.55553 9.26583C6.84992 9.0618 7.2537 9.13283 7.46078 9.42509C7.66785 9.71735 7.60101 10.1218 7.31091 10.3319L1.43091 14.5002C1.32081 14.5786 1.18901 14.6206 1.05388 14.6205Z" fill="#111112"/>
<path d="M38.9461 14.6205C38.811 14.6206 38.6792 14.5786 38.5691 14.5002L32.6891 10.3319C32.399 10.1218 32.3322 9.71735 32.5392 9.42509C32.7463 9.13283 33.1501 9.0618 33.4445 9.26583L39.3245 13.4341C39.5567 13.5986 39.6556 13.8945 39.5692 14.1657C39.4827 14.4368 39.2307 14.6207 38.9461 14.6205Z" fill="#111112"/>
<path d="M26.0364 5.47356C25.9012 5.47363 25.7693 5.43159 25.659 5.35328L22.5361 3.13848C21.0864 1.91347 18.968 1.90071 17.5037 3.10816L14.3416 5.35334C14.1511 5.4884 13.9031 5.51159 13.6909 5.41419C13.4787 5.31679 13.3346 5.11359 13.3129 4.88114C13.2912 4.64868 13.3951 4.42229 13.5855 4.28724L16.7085 2.07243C18.6382 0.494612 21.4158 0.507162 23.3312 2.10236L26.4149 4.28697C26.6473 4.45147 26.7464 4.74751 26.6599 5.01876C26.5734 5.29001 26.3211 5.47399 26.0364 5.47356Z" fill="#111112"/>
<path d="M1.47767 39.7475C1.20233 39.7477 0.956397 39.5753 0.862731 39.3164C0.769065 39.0575 0.847773 38.7676 1.05953 38.5917L15.9686 26.2044C16.1478 26.0521 16.3949 26.0078 16.6159 26.0884C16.8368 26.1691 16.9973 26.3622 17.0362 26.5942C17.075 26.8261 16.9863 27.061 16.8038 27.2093L1.89469 39.5965C1.77763 39.6941 1.63006 39.7475 1.47767 39.7475Z" fill="#111112"/>
<path d="M38.5212 39.7474C38.3689 39.7475 38.2215 39.6941 38.1046 39.5965L23.1955 27.2093C23.013 27.061 22.9242 26.8261 22.9631 26.5942C23.002 26.3622 23.1625 26.1691 23.3834 26.0884C23.6043 26.0078 23.8515 26.0521 24.0307 26.2044L38.9393 38.5917C39.1511 38.7676 39.2298 39.0575 39.1362 39.3164C39.0425 39.5753 38.7965 39.7476 38.5212 39.7474Z" fill="#111112"/>
<path d="M33.0665 19.5067C32.7056 19.5067 32.4131 19.2142 32.4131 18.8534V5.47821C32.4112 5.49193 32.385 5.47344 32.3413 5.47311H7.65832C7.62944 5.47134 7.6011 5.4815 7.57992 5.50121L7.58645 18.8534C7.58645 19.2142 7.29394 19.5067 6.93312 19.5067C6.57229 19.5067 6.27979 19.2142 6.27979 18.8534V5.47311C6.30086 4.73217 6.9173 4.14786 7.65832 4.16645H32.3413C33.0822 4.14793 33.6986 4.7322 33.7198 5.47311V18.8534C33.7198 19.2142 33.4273 19.5067 33.0665 19.5067Z" fill="#111112"/>
</g>
<defs>
<clipPath id="clip0_1084_577">
<rect width="39.2" height="39.2" fill="white" transform="translate(0.399902 0.900391)"/>
</clipPath>
</defs>
</svg>
