<svg width="22" height="22" viewBox="0 0 22 22" fill="none" xmlns="http://www.w3.org/2000/svg">
<path fill-rule="evenodd" clip-rule="evenodd" d="M19.7866 11.3782C18.0113 14.5662 14.6446 16.5466 11.0021 16.5466C7.35724 16.5466 3.9906 14.5662 2.2153 11.3782C2.07857 11.1307 2.07857 10.869 2.2153 10.6217C3.9906 7.43374 7.35724 5.45357 11.0021 5.45357C14.6446 5.45357 18.0113 7.43374 19.7866 10.6217C19.9257 10.869 19.9257 11.1307 19.7866 11.3782ZM20.9206 9.98961C18.9166 6.39025 15.1162 4.15454 11.0021 4.15454C6.8857 4.15454 3.08525 6.39025 1.08127 9.98961C0.72291 10.6318 0.72291 11.3681 1.08127 12.0098C3.08525 15.6092 6.8857 17.8454 11.0021 17.8454C15.1162 17.8454 18.9166 15.6092 20.9206 12.0098C21.2789 11.3681 21.2789 10.6318 20.9206 9.98961ZM11.0021 13.6646C12.4709 13.6646 13.6662 12.4693 13.6662 10.9998C13.6662 9.53036 12.4709 8.33506 11.0021 8.33506C9.53095 8.33506 8.33564 9.53036 8.33564 10.9998C8.33564 12.4693 9.53099 13.6646 11.0021 13.6646ZM11.0021 7.03603C8.81423 7.03603 7.03661 8.81437 7.03661 10.9999C7.03661 13.1859 8.81427 14.9635 11.0021 14.9635C13.1876 14.9635 14.9652 13.1858 14.9652 10.9999C14.9652 8.81437 13.1876 7.03603 11.0021 7.03603Z" fill="black"/>
</svg>
