<svg width="20" height="20" viewBox="0 0 20 20" fill="none" xmlns="http://www.w3.org/2000/svg">
<path d="M12.9823 9.99993C12.9823 11.6499 11.649 12.9833 9.99896 12.9833C8.34896 12.9833 7.01562 11.6499 7.01562 9.99993C7.01562 8.34993 8.34896 7.0166 9.99896 7.0166C11.649 7.0166 12.9823 8.34993 12.9823 9.99993Z" stroke="#191B21" stroke-width="1.5" stroke-linecap="round" stroke-linejoin="round"/>
<path d="M10.0018 16.8916C12.9435 16.8916 15.6852 15.1583 17.5935 12.1583C18.3435 10.9833 18.3435 9.00831 17.5935 7.83331C15.6852 4.83331 12.9435 3.09998 10.0018 3.09998C7.06016 3.09998 4.31849 4.83331 2.41016 7.83331C1.66016 9.00831 1.66016 10.9833 2.41016 12.1583C4.31849 15.1583 7.06016 16.8916 10.0018 16.8916Z" stroke="#191B21" stroke-width="1.5" stroke-linecap="round" stroke-linejoin="round"/>
</svg>
