<svg width="49" height="49" viewBox="0 0 49 49" fill="none" xmlns="http://www.w3.org/2000/svg">
<mask id="mask0_1510_454" style="mask-type:luminance" maskUnits="userSpaceOnUse" x="0" y="0" width="49" height="49">
<path d="M49 0H0V49H49V0Z" fill="white"/>
</mask>
<g mask="url(#mask0_1510_454)">
<path fill-rule="evenodd" clip-rule="evenodd" d="M12.425 0H0.175001V12.25C0.175001 18.4882 4.83792 23.6373 10.8684 24.402C4.75337 25.0885 1.03396e-06 30.2766 5.35465e-07 36.5751L0 48.8251H12.25C18.4882 48.8251 23.6373 44.162 24.402 38.1316C25.0885 44.2468 30.2766 49 36.5751 49H48.8251V36.75C48.8251 30.5118 44.162 25.3626 38.1316 24.598C44.2468 23.9116 49 18.7234 49 12.425V0.175L36.75 0.175C30.5118 0.174999 25.3626 4.83792 24.598 10.8684C23.9116 4.75337 18.7234 0 12.425 0Z" fill="url(#paint0_linear_1510_454)"/>
</g>
<defs>
<linearGradient id="paint0_linear_1510_454" x1="43.316" y1="16.7417" x2="2.07663" y2="17.1894" gradientUnits="userSpaceOnUse">
<stop stop-color="#8348FF"/>
<stop offset="1" stop-color="#402C71"/>
</linearGradient>
</defs>
</svg>
