<svg width="27" height="27" viewBox="0 0 27 27" fill="none" xmlns="http://www.w3.org/2000/svg">
<path d="M10.6875 15.4688C10.6875 16.56 11.5313 17.4375 12.5663 17.4375H14.6812C15.5812 17.4375 16.3125 16.6725 16.3125 15.7163C16.3125 14.6925 15.8625 14.3213 15.1988 14.085L11.8125 12.9038C11.1488 12.6675 10.6988 12.3075 10.6988 11.2725C10.6988 10.3275 11.43 9.55127 12.33 9.55127H14.445C15.48 9.55127 16.3238 10.4288 16.3238 11.52" stroke="white" stroke-width="2" stroke-linecap="round" stroke-linejoin="round"/>
<path d="M13.5 8.4375V18.5625" stroke="white" stroke-width="2" stroke-linecap="round" stroke-linejoin="round"/>
<path d="M24.75 13.5C24.75 19.71 19.71 24.75 13.5 24.75C7.29 24.75 2.25 19.71 2.25 13.5C2.25 7.29 7.29 2.25 13.5 2.25" stroke="#8348FF" stroke-width="2" stroke-linecap="round" stroke-linejoin="round"/>
<path d="M24.75 6.75V2.25H20.25" stroke="white" stroke-width="2" stroke-linecap="round" stroke-linejoin="round"/>
<path d="M19.125 7.875L24.75 2.25" stroke="white" stroke-width="2" stroke-linecap="round" stroke-linejoin="round"/>
</svg>
