<svg width="27" height="27" viewBox="0 0 27 27" fill="none" xmlns="http://www.w3.org/2000/svg">
<path d="M24.75 18.8324V5.25366C24.75 3.90366 23.6475 2.90241 22.3087 3.01491H22.2413C19.8788 3.21741 16.29 4.42116 14.2875 5.68116L14.0962 5.80491C13.77 6.00741 13.23 6.00741 12.9038 5.80491L12.6225 5.63616C10.62 4.38741 7.0425 3.19491 4.68 3.00366C3.34125 2.89116 2.25 3.90366 2.25 5.24241V18.8324C2.25 19.9124 3.1275 20.9249 4.2075 21.0599L4.53375 21.1049C6.975 21.4312 10.7438 22.6687 12.9038 23.8499L12.9488 23.8724C13.2525 24.0412 13.7363 24.0412 14.0288 23.8724C16.1888 22.6799 19.9688 21.4312 22.4213 21.1049L22.7925 21.0599C23.8725 20.9249 24.75 19.9124 24.75 18.8324Z" stroke="#8348FF" stroke-width="2" stroke-linecap="round" stroke-linejoin="round"/>
<path d="M13.5 6.17627V23.0513" stroke="white" stroke-width="2" stroke-linecap="round" stroke-linejoin="round"/>
<path d="M8.71875 9.55127H6.1875" stroke="white" stroke-width="2" stroke-linecap="round" stroke-linejoin="round"/>
<path d="M9.5625 12.9263H6.1875" stroke="white" stroke-width="2" stroke-linecap="round" stroke-linejoin="round"/>
</svg>
