<svg width="27" height="27" viewBox="0 0 27 27" fill="none" xmlns="http://www.w3.org/2000/svg">
<path d="M14.063 24.7504H4.59055C3.28555 24.7504 2.2168 23.7041 2.2168 22.4216V5.72664C2.2168 2.77914 4.41055 1.44039 7.0993 2.75664L12.0943 5.20914C13.1743 5.73789 14.063 7.14414 14.063 8.33664V24.7504Z" stroke="white" stroke-width="2" stroke-linecap="round" stroke-linejoin="round"/>
<path d="M24.7162 16.9427V21.1952C24.7162 23.6252 23.5912 24.7502 21.1612 24.7502H14.0625V11.7227L14.5913 11.8352L19.6537 12.9714L21.9375 13.4777C23.4225 13.8039 24.6375 14.5689 24.705 16.7289C24.7162 16.7964 24.7162 16.8639 24.7162 16.9427Z" stroke="white" stroke-width="2" stroke-linecap="round" stroke-linejoin="round"/>
<path d="M6.1875 10.125H10.0913" stroke="#8348FF" stroke-width="2" stroke-linecap="round" stroke-linejoin="round"/>
<path d="M6.1875 14.625H10.0913" stroke="#8348FF" stroke-width="2" stroke-linecap="round" stroke-linejoin="round"/>
<path d="M19.6543 12.9717V16.5942C19.6543 17.9892 18.518 19.1254 17.123 19.1254C15.728 19.1254 14.5918 17.9892 14.5918 16.5942V11.8354L19.6543 12.9717Z" stroke="#8348FF" stroke-width="2" stroke-linecap="round" stroke-linejoin="round"/>
<path d="M24.7055 16.7287C24.638 18.0562 23.5355 19.1249 22.1855 19.1249C20.7905 19.1249 19.6543 17.9887 19.6543 16.5937V12.9712L21.938 13.4774C23.423 13.8037 24.638 14.5687 24.7055 16.7287Z" stroke="#8348FF" stroke-width="2" stroke-linecap="round" stroke-linejoin="round"/>
</svg>
