<svg width="27" height="27" viewBox="0 0 27 27" fill="none" xmlns="http://www.w3.org/2000/svg">
<path d="M14.6372 3.28486L21.2747 6.23236C23.1872 7.07611 23.1872 8.47111 21.2747 9.31486L14.6372 12.2624C13.8834 12.5999 12.6459 12.5999 11.8922 12.2624L5.25469 9.31486C3.34219 8.47111 3.34219 7.07611 5.25469 6.23236L11.8922 3.28486C12.6459 2.94736 13.8834 2.94736 14.6372 3.28486Z" stroke="#8348FF" stroke-width="2" stroke-linecap="round" stroke-linejoin="round"/>
<path d="M3.375 12.375C3.375 13.32 4.08375 14.4112 4.95 14.7937L12.5887 18.1913C13.1737 18.45 13.8375 18.45 14.4113 18.1913L22.05 14.7937C22.9163 14.4112 23.625 13.32 23.625 12.375" stroke="white" stroke-width="2" stroke-linecap="round" stroke-linejoin="round"/>
<path d="M3.375 18C3.375 19.0463 3.99375 19.9912 4.95 20.4187L12.5887 23.8163C13.1737 24.075 13.8375 24.075 14.4113 23.8163L22.05 20.4187C23.0063 19.9912 23.625 19.0463 23.625 18" stroke="#8348FF" stroke-width="2" stroke-linecap="round" stroke-linejoin="round"/>
</svg>
