<svg width="26" height="26" viewBox="0 0 26 26" fill="none" xmlns="http://www.w3.org/2000/svg">
<path d="M12.2637 3.25H5.51456C3.35872 3.25 2.27539 4.34417 2.27539 6.52167V23.8333H8.12539V19.7708C8.12539 19.3267 8.49372 18.9583 8.93789 18.9583C9.38206 18.9583 9.75039 19.3158 9.75039 19.7708V23.8333H15.4921V6.52167C15.4921 4.34417 14.4196 3.25 12.2637 3.25ZM11.6462 13.8125H6.28372C5.83956 13.8125 5.47122 13.4442 5.47122 13C5.47122 12.5558 5.83956 12.1875 6.28372 12.1875H11.6462C12.0904 12.1875 12.4587 12.5558 12.4587 13C12.4587 13.4442 12.0904 13.8125 11.6462 13.8125ZM11.6462 9.75H6.28372C5.83956 9.75 5.47122 9.38167 5.47122 8.9375C5.47122 8.49333 5.83956 8.125 6.28372 8.125H11.6462C12.0904 8.125 12.4587 8.49333 12.4587 8.9375C12.4587 9.38167 12.0904 9.75 11.6462 9.75Z" fill="#8348FF"/>
<path d="M24.9163 23.0208H22.4572V19.7708C23.4863 19.435 24.2338 18.4708 24.2338 17.3333V15.1667C24.2338 13.7475 23.0747 12.5883 21.6555 12.5883C20.2363 12.5883 19.0772 13.7475 19.0772 15.1667V17.3333C19.0772 18.46 19.8138 19.4133 20.8213 19.76V23.0208H1.08301C0.638841 23.0208 0.270508 23.3892 0.270508 23.8333C0.270508 24.2775 0.638841 24.6458 1.08301 24.6458H21.5905C21.6122 24.6458 21.623 24.6567 21.6447 24.6567C21.6663 24.6567 21.6772 24.6458 21.6988 24.6458H24.9163C25.3605 24.6458 25.7288 24.2775 25.7288 23.8333C25.7288 23.3892 25.3605 23.0208 24.9163 23.0208Z" fill="#8348FF"/>
</svg>
