<svg width="26" height="26" viewBox="0 0 26 26" fill="none" xmlns="http://www.w3.org/2000/svg">
<path d="M9.75033 2.16663C6.91199 2.16663 4.60449 4.47413 4.60449 7.31246C4.60449 10.0966 6.78199 12.35 9.62033 12.4475C9.70699 12.4366 9.79366 12.4366 9.85866 12.4475C9.88033 12.4475 9.89116 12.4475 9.91283 12.4475C9.92366 12.4475 9.92366 12.4475 9.93449 12.4475C12.7078 12.35 14.8853 10.0966 14.8962 7.31246C14.8962 4.47413 12.5887 2.16663 9.75033 2.16663Z" fill="#8348FF"/>
<path d="M15.253 15.3291C12.2305 13.3141 7.30138 13.3141 4.25721 15.3291C2.88138 16.25 2.12305 17.4958 2.12305 18.8283C2.12305 20.1608 2.88138 21.3958 4.24638 22.3058C5.76305 23.3241 7.75638 23.8333 9.74971 23.8333C11.743 23.8333 13.7364 23.3241 15.253 22.3058C16.618 21.385 17.3764 20.15 17.3764 18.8066C17.3655 17.4741 16.618 16.2391 15.253 15.3291Z" fill="#8348FF"/>
<path d="M21.6561 7.95161C21.8295 10.0533 20.3345 11.8949 18.2653 12.1441C18.2545 12.1441 18.2545 12.1441 18.2436 12.1441H18.2111C18.1461 12.1441 18.0811 12.1441 18.027 12.1658C16.9761 12.2199 16.012 11.8841 15.2861 11.2666C16.402 10.2699 17.0411 8.77495 16.9111 7.14995C16.8353 6.27245 16.532 5.47078 16.077 4.78828C16.4886 4.58245 16.9653 4.45245 17.4528 4.40911C19.5761 4.22495 21.472 5.80661 21.6561 7.95161Z" fill="#8348FF"/>
<path d="M23.8229 17.9725C23.7362 19.0234 23.0646 19.9334 21.9379 20.5509C20.8546 21.1467 19.4896 21.4284 18.1354 21.3959C18.9154 20.6917 19.3704 19.8142 19.4571 18.8825C19.5654 17.5392 18.9263 16.25 17.6479 15.2209C16.9221 14.6467 16.0771 14.1917 15.1562 13.8559C17.5504 13.1625 20.5621 13.6284 22.4146 15.1234C23.4113 15.925 23.9204 16.9325 23.8229 17.9725Z" fill="#8348FF"/>
</svg>
