<svg width="26" height="26" viewBox="0 0 26 26" fill="none" xmlns="http://www.w3.org/2000/svg">
<path d="M11.6455 5.02664L6.84629 2.65414C4.25712 1.38664 2.13379 2.6758 2.13379 5.51414V21.5908C2.13379 22.8258 3.16296 23.8333 4.41962 23.8333H12.458C13.0538 23.8333 13.5413 23.3458 13.5413 22.75V8.02747C13.5413 6.88997 12.6855 5.5358 11.6455 5.02664ZM9.71712 14.8958H5.95796C5.51379 14.8958 5.14546 14.5275 5.14546 14.0833C5.14546 13.6391 5.51379 13.2708 5.95796 13.2708H9.71712C10.1613 13.2708 10.5296 13.6391 10.5296 14.0833C10.5296 14.5275 10.1721 14.8958 9.71712 14.8958ZM9.71712 10.5625H5.95796C5.51379 10.5625 5.14546 10.1941 5.14546 9.74997C5.14546 9.3058 5.51379 8.93747 5.95796 8.93747H9.71712C10.1613 8.93747 10.5296 9.3058 10.5296 9.74997C10.5296 10.1941 10.1721 10.5625 9.71712 10.5625Z" fill="#8348FF"/>
<path d="M23.8337 19.5433V21.125C23.8337 22.62 22.6203 23.8333 21.1253 23.8333H16.2178C15.6328 23.8333 15.167 23.3675 15.167 22.7825V20.4425C16.3262 20.5833 17.5503 20.2475 18.4278 19.5433C19.1645 20.1392 20.107 20.4967 21.1362 20.4967C22.1437 20.4967 23.0862 20.1392 23.8337 19.5433Z" fill="#8348FF"/>
<path d="M23.8337 16.3042V16.315C23.747 17.7342 22.5878 18.8717 21.1362 18.8717C19.6303 18.8717 18.4278 17.6475 18.4278 16.1633C18.4278 17.8208 16.9003 19.1533 15.167 18.8175V13C15.167 12.3067 15.8062 11.7867 16.4887 11.9383L18.4278 12.3717L18.9478 12.4908L21.1578 12.9891C21.6887 13.0975 22.1762 13.2817 22.5987 13.5525C22.5987 13.5633 22.6095 13.5633 22.6095 13.5633C22.7178 13.6392 22.8262 13.7258 22.9237 13.8233C23.422 14.3217 23.747 15.0475 23.8228 16.1091C23.8228 16.1741 23.8337 16.2392 23.8337 16.3042Z" fill="#8348FF"/>
</svg>
