<svg width="26" height="26" viewBox="0 0 26 26" fill="none" xmlns="http://www.w3.org/2000/svg">
<path d="M13.8125 17.2467H14.5167C15.2208 17.2467 15.8058 16.6183 15.8058 15.86C15.8058 14.9175 15.47 14.7333 14.9175 14.5383L13.8233 14.1592V17.2467H13.8125Z" fill="#8348FF"/>
<path d="M12.9679 2.05837C6.9879 2.08003 2.1454 6.9442 2.16706 12.9242C2.18873 18.9042 7.0529 23.7467 13.0329 23.725C19.0129 23.7034 23.8554 18.8392 23.8337 12.8592C23.8121 6.8792 18.9479 2.04753 12.9679 2.05837ZM15.4487 13C16.2937 13.2925 17.4312 13.9209 17.4312 15.86C17.4312 17.5284 16.1204 18.8717 14.5171 18.8717H13.8129V19.5C13.8129 19.9442 13.4446 20.3125 13.0004 20.3125C12.5562 20.3125 12.1879 19.9442 12.1879 19.5V18.8717H11.7979C10.0212 18.8717 8.5804 17.3767 8.5804 15.535C8.5804 15.0909 8.94873 14.7225 9.3929 14.7225C9.83706 14.7225 10.2054 15.0909 10.2054 15.535C10.2054 16.4775 10.9204 17.2467 11.7979 17.2467H12.1879V13.585L10.5521 13C9.70706 12.7075 8.56956 12.0792 8.56956 10.14C8.56956 8.4717 9.8804 7.12837 11.4837 7.12837H12.1879V6.50003C12.1879 6.05587 12.5562 5.68753 13.0004 5.68753C13.4446 5.68753 13.8129 6.05587 13.8129 6.50003V7.12837H14.2029C15.9796 7.12837 17.4204 8.62337 17.4204 10.465C17.4204 10.9092 17.0521 11.2775 16.6079 11.2775C16.1637 11.2775 15.7954 10.9092 15.7954 10.465C15.7954 9.52253 15.0804 8.75337 14.2029 8.75337H13.8129V12.415L15.4487 13Z" fill="#8348FF"/>
<path d="M10.2051 10.1508C10.2051 11.0933 10.5409 11.2775 11.0934 11.4725L12.1876 11.8516V8.7533H11.4834C10.7792 8.7533 10.2051 9.38163 10.2051 10.1508Z" fill="#8348FF"/>
</svg>
