<svg width="36" height="36" viewBox="0 0 36 36" fill="none" xmlns="http://www.w3.org/2000/svg">
<path d="M24.7906 29.6456H29.4736V20.0367C29.4736 15.2324 26.5468 13.6309 23.7662 13.6309C21.2785 13.6309 19.5223 15.2324 19.0834 16.2515V14.0676H14.4004V29.6456H19.376V21.347C19.376 19.1633 20.8394 17.9985 22.3028 17.9985C23.7662 17.9985 24.7906 18.7265 24.7906 21.2015V29.6456Z" fill="#F5F8FF"/>
<path d="M6.64429 14.0674V29.6453H11.6199V14.0674H6.64429Z" fill="#F5F8FF"/>
<path d="M6.35156 9.11773C6.35156 10.7192 7.52228 11.8839 9.13204 11.8839C10.7418 11.8839 11.9125 10.7192 11.9125 9.11773C11.9125 7.51627 10.7418 6.35156 9.13204 6.35156C7.66862 6.35156 6.35156 7.51627 6.35156 9.11773Z" fill="#F5F8FF"/>
</svg>
