<svg width="17" height="17" viewBox="0 0 17 17" fill="none" xmlns="http://www.w3.org/2000/svg">
<path d="M6.59231 6.59375C4.99856 8.1875 4.90481 10.75 6.31106 12.4375C6.49856 12.6875 6.37356 12.5625 8.93606 15.125C10.6548 16.8438 13.4361 16.8438 15.1236 15.125C16.8423 13.4375 16.8423 10.6562 15.1236 8.9375C14.1236 7.9375 13.5298 7.34375 13.1548 6.96875C12.9361 6.75 12.5298 6.90625 12.5298 7.21875C12.4986 7.625 12.4673 8.03125 12.3736 8.40625C12.3423 8.53125 12.3736 8.65625 12.4673 8.75L13.9048 10.1875C14.9361 11.2188 14.9361 12.875 13.9048 13.9062C12.8736 14.9375 11.2173 14.9375 10.1861 13.9062L7.84231 11.5625C6.81106 10.5312 6.81106 8.875 7.84231 7.84375C8.02981 7.625 8.27981 7.46875 8.56106 7.34375C8.68606 7.25 8.77981 7.09375 8.74856 6.9375C8.71731 6.59375 8.56106 6.25 8.27981 6L8.15481 5.875C8.02981 5.75 7.87356 5.71875 7.71731 5.78125C7.31106 6 6.93606 6.25 6.59231 6.59375ZM1.71731 1.71875C-0.00143766 3.40625 -0.00143766 6.1875 1.71731 7.90625C2.71731 8.90625 3.31106 9.5 3.68606 9.875C3.90481 10.0938 4.31106 9.9375 4.31106 9.625C4.34231 9.21875 4.37356 8.8125 4.46731 8.4375C4.49856 8.3125 4.46731 8.1875 4.37356 8.09375L2.93606 6.65625C1.90481 5.625 1.90481 3.96875 2.93606 2.9375C3.96731 1.90625 5.62356 1.90625 6.65481 2.9375L8.99856 5.28125C10.0298 6.3125 10.0298 7.96875 8.99856 9C8.81106 9.21875 8.56106 9.375 8.27981 9.5C8.15481 9.59375 8.06106 9.75 8.09231 9.90625C8.12356 10.25 8.27981 10.5938 8.56106 10.8438L8.68606 10.9688C8.81106 11.0938 8.96731 11.125 9.12356 11.0625C9.52981 10.8438 9.90481 10.5938 10.2486 10.25C11.8423 8.65625 11.9361 6.09375 10.5298 4.40625C10.3423 4.15625 10.4673 4.28125 7.90481 1.71875C6.18606 0 3.40481 0 1.71731 1.71875Z" fill="#191B21"/>
</svg>
