<svg width="33" height="33" viewBox="0 0 33 33" fill="none" xmlns="http://www.w3.org/2000/svg">
<path d="M31.6046 13.7505C30.9398 13.1069 30.2737 12.4586 29.6064 11.8054C29.5876 10.9008 29.5641 9.99661 29.5357 9.09281C29.4982 7.88226 28.9727 6.72739 28.0774 5.83027C27.1822 4.93315 26.021 4.41327 24.8092 4.37511C23.9034 4.34716 22.9975 4.32381 22.0916 4.30504C21.4385 3.64023 20.791 2.97625 20.1491 2.3131C19.2801 1.42349 18.1553 0.926133 16.9585 0.926758C15.7617 0.927384 14.6362 1.42724 13.7729 2.3131C13.1277 2.9775 12.4781 3.64294 11.8241 4.30942C10.9183 4.32777 10.0126 4.35112 9.10712 4.37949C6.6122 4.46457 4.46512 6.60852 4.38003 9.09657C4.35209 10.0012 4.32853 10.9054 4.30934 11.8092C3.64203 12.4619 2.97596 13.11 2.31115 13.7536C1.42341 14.6163 0.924805 15.7424 0.924805 16.931C0.924805 18.1197 1.42029 19.2458 2.31115 20.1116C2.97596 20.7548 3.64328 21.4023 4.31309 22.0541C4.33103 22.9588 4.35438 23.8636 4.38316 24.7687C4.42132 25.9811 4.94621 27.1328 5.84083 28.0312C6.73545 28.9296 7.89595 29.4482 9.10962 29.4857C10.0155 29.5145 10.9214 29.5381 11.8273 29.5564C12.4804 30.2208 13.1292 30.8844 13.7735 31.5471C14.6387 32.4367 15.7648 32.9341 16.9641 32.9335C18.1634 32.9328 19.2864 32.4367 20.1547 31.5477C20.7991 30.8838 21.4481 30.2189 22.1016 29.5533C23.0075 29.5345 23.9132 29.511 24.8186 29.4826C27.3129 29.3981 29.46 27.2542 29.5451 24.7655C29.5735 23.8617 29.5968 22.9579 29.6152 22.0541C30.2825 21.401 30.9487 20.7527 31.614 20.1091C32.5017 19.247 33.0003 18.1222 33.0003 16.9292C33.0003 15.7361 32.4936 14.6163 31.6046 13.7505ZM24.9225 14.9022C22.2211 17.7093 19.4766 20.579 16.7777 23.4255C16.5584 23.6579 16.294 23.8431 16.0006 23.9698C15.7073 24.0965 15.3912 24.1621 15.0717 24.1624H15.061C14.7418 24.1603 14.4263 24.0944 14.133 23.9684C13.8397 23.8425 13.5745 23.6592 13.3531 23.4292C11.9101 21.939 10.4624 20.4543 9.01015 18.9749C8.79056 18.7541 8.6173 18.4916 8.50058 18.2029C8.38385 17.9141 8.326 17.605 8.33043 17.2936C8.33486 16.9822 8.40148 16.6748 8.52637 16.3895C8.65126 16.1042 8.83191 15.8468 9.0577 15.6323C9.51269 15.1927 10.1228 14.9504 10.7555 14.9583C11.3881 14.9661 11.992 15.2234 12.436 15.6742C13.2989 16.5588 14.1629 17.4459 15.0279 18.3355C17.1706 16.0902 19.3239 13.8312 21.4435 11.6078C22.3431 10.6612 23.8439 10.6456 24.8086 11.559C25.7733 12.4723 25.829 13.9607 24.9225 14.9022Z" fill="#191B21"/>
</svg>
