<svg width="35" height="35" viewBox="0 0 35 35" fill="none" xmlns="http://www.w3.org/2000/svg">
<path d="M2.16741 27.3438C1.81877 27.3438 1.48381 27.2617 1.1762 27.1045C0.349048 26.7012 -0.122632 25.8262 0.0277588 24.9785C0.130298 24.4111 0.383228 23.8779 0.704517 23.543C4.11565 20.0771 7.54045 16.666 10.1381 14.0889C10.603 13.6309 11.1567 13.3848 11.7309 13.3848C12.3324 13.3848 12.9135 13.6445 13.4125 14.1436L19.2914 20.0225L27.2895 12.0176L26.4828 12.0107C25.4574 12.0039 24.0492 11.9971 23.2426 11.9902C21.9711 11.9766 21.0824 11.0947 21.0756 9.83691C21.0756 9.22168 21.2875 8.66797 21.684 8.27148C22.0805 7.875 22.6205 7.66309 23.2221 7.66309C24.849 7.65625 26.4692 7.65625 28.0346 7.65625C29.6684 7.65625 31.2953 7.66309 32.8676 7.66309C34.0844 7.66992 34.9731 8.53809 34.9799 9.73437C35.0004 13.0703 35.0004 16.3584 34.9799 19.5098C34.9731 20.7061 34.0639 21.5742 32.8198 21.5742H32.7924C31.5551 21.5605 30.6801 20.6924 30.6596 19.4551C30.6459 18.4844 30.6459 17.5 30.6528 16.5498C30.6528 16.1328 30.6528 15.7158 30.6528 15.2988V15.0527C30.6186 15.0801 30.5912 15.1074 30.5639 15.1348C27.8569 17.8486 25.1567 20.5693 22.4496 23.29L21.3217 24.418C20.6518 25.1016 20.016 25.4297 19.394 25.4297C18.7719 25.4297 18.1567 25.1084 17.5004 24.4453L11.7309 18.6621L11.2455 19.1406C10.7397 19.6396 10.268 20.1113 9.80315 20.5762L7.62932 22.7637C6.37835 24.0215 5.08635 25.3271 3.80803 26.6055C3.33635 27.0908 2.76897 27.3438 2.16741 27.3438Z" fill="#191B21"/>
</svg>
