<svg width="31" height="31" viewBox="0 0 31 31" fill="none" xmlns="http://www.w3.org/2000/svg">
<path d="M15.5 12.5109C18.4092 12.5109 20.7676 10.1525 20.7676 7.24329C20.7676 4.33408 18.4092 1.97571 15.5 1.97571C12.5908 1.97571 10.2324 4.33408 10.2324 7.24329C10.2324 10.1525 12.5908 12.5109 15.5 12.5109Z" fill="#191B21"/>
<path d="M26.1562 12.5109C27.9954 12.5109 29.4863 11.0199 29.4863 9.18079C29.4863 7.34164 27.9954 5.85071 26.1562 5.85071C24.3171 5.85071 22.8262 7.34164 22.8262 9.18079C22.8262 11.0199 24.3171 12.5109 26.1562 12.5109Z" fill="#191B21"/>
<path d="M4.84375 12.5109C6.6829 12.5109 8.17383 11.0199 8.17383 9.18079C8.17383 7.34164 6.6829 5.85071 4.84375 5.85071C3.0046 5.85071 1.51367 7.34164 1.51367 9.18079C1.51367 11.0199 3.0046 12.5109 4.84375 12.5109Z" fill="#191B21"/>
<path d="M8.12479 15.5013C6.81395 14.4273 5.6268 14.5695 4.11113 14.5695C1.84426 14.5695 0 16.4028 0 18.6558V25.2681C0 26.2465 0.798613 27.0421 1.78068 27.0421C6.02054 27.0421 5.50977 27.1188 5.50977 26.8593C5.50977 22.1738 4.95479 18.7377 8.12479 15.5013Z" fill="#191B21"/>
<path d="M16.9412 14.5937C14.2938 14.3728 11.9928 14.5962 10.008 16.2345C6.68655 18.8949 7.32574 22.477 7.32574 26.8592C7.32574 28.0187 8.26906 28.9796 9.44609 28.9796C22.2264 28.9796 22.7351 29.3919 23.493 27.7136C23.7415 27.146 23.6734 27.3264 23.6734 21.8968C23.6734 17.5843 19.9393 14.5937 16.9412 14.5937Z" fill="#191B21"/>
<path d="M26.8887 14.5694C25.3647 14.5694 24.1841 14.4287 22.875 15.5012C26.0213 18.7136 25.49 21.9153 25.49 26.8592C25.49 27.1204 25.066 27.0421 29.1555 27.0421C30.1727 27.0421 30.9998 26.218 30.9998 25.2051V18.6557C30.9998 16.4028 29.1555 14.5694 26.8887 14.5694Z" fill="#191B21"/>
</svg>
