<svg width="34" height="36" viewBox="0 0 34 36" fill="none" xmlns="http://www.w3.org/2000/svg">
<path fill-rule="evenodd" clip-rule="evenodd" d="M16.5757 0.33532C16.6314 0.136923 16.8041 0 17 0C17.1959 0 17.3686 0.136923 17.4243 0.33532C17.4243 0.33532 18.201 3.09169 19.0333 6.0481C20.3597 10.7582 23.8395 14.4426 28.2879 15.8471C31.0801 16.7284 33.6833 17.5507 33.6833 17.5507C33.8707 17.6097 34 17.7926 34 18C34 18.2074 33.8707 18.3903 33.6833 18.4493C33.6833 18.4493 31.0801 19.2716 28.2879 20.153C23.8395 21.5574 20.3597 25.2418 19.0333 29.9519C18.201 32.9083 17.4243 35.6647 17.4243 35.6647C17.3686 35.8631 17.1959 36 17 36C16.8041 36 16.6314 35.8631 16.5757 35.6647C16.5757 35.6647 15.799 32.9083 14.9667 29.9519C13.6403 25.2418 10.1605 21.5574 5.71208 20.153C2.91993 19.2716 0.316691 18.4493 0.316691 18.4493C0.129304 18.3903 0 18.2074 0 18C0 17.7926 0.129304 17.6097 0.316691 17.5507C0.316691 17.5507 2.91993 16.7284 5.71208 15.8471C10.1605 14.4426 13.6403 10.7582 14.9667 6.0481C15.799 3.09169 16.5757 0.33532 16.5757 0.33532Z" fill="white"/>
</svg>
