<svg width="35" height="42" viewBox="0 0 35 42" fill="none" xmlns="http://www.w3.org/2000/svg">
<path d="M34.0315 23.9515C33.6874 21.9188 32.6619 20.6253 31.8378 19.586C31.0986 18.6537 30.5134 17.9157 30.5038 16.8966C30.9284 11.6964 29.6959 7.36559 26.9385 4.37054C25.645 2.96551 24.0303 1.88089 22.1393 1.1468C20.179 0.385875 17.9128 0 15.4037 0C11.7681 0 8.47716 1.05263 5.88645 3.04402C3.52838 4.85674 1.77282 7.40193 0.809367 10.4045C-0.218648 13.6085 -0.269015 17.1607 0.667699 20.4068C1.64428 23.7913 3.60442 26.6511 6.34549 28.6969C6.54384 32.8719 5.39902 36.1473 4.5577 38.5544C4.19578 39.5898 3.90998 40.4076 3.809 41.0826C3.78078 41.2715 3.83624 41.4634 3.96093 41.608C4.08561 41.7526 4.26707 41.8359 4.45812 41.8359H22.4138C22.7762 41.8359 23.07 41.542 23.07 41.1796C23.07 39.535 22.5321 38.0763 22.0999 36.9041C21.3685 34.9206 21.373 34.5431 22.1316 34.2111C22.5651 34.0212 23.873 34.3384 24.9238 34.5932C26.8939 35.071 28.9309 35.5651 29.868 34.3987C29.9295 34.3221 29.973 34.2327 29.9954 34.137C30.4645 32.129 30.9066 31.4923 31.1993 31.071C31.4586 30.6976 31.7035 30.3449 31.7035 29.5688C31.7035 29.364 31.6078 29.1709 31.4449 29.0468C31.0129 28.7177 30.7057 28.4653 30.526 28.292C30.7965 28.1767 31.2006 28.0462 31.3658 27.9929C31.6354 27.9058 31.8187 27.6556 31.8204 27.3723L31.8342 25.0215L33.5063 24.7059C33.8576 24.6396 34.0912 24.3041 34.0315 23.9515ZM31.0594 23.832C30.7507 23.8902 30.5267 24.1589 30.5248 24.473L30.5105 26.8926C29.7632 27.1491 29.1716 27.4326 29.069 28.0333C28.9597 28.6726 29.4742 29.1787 30.3651 29.8723C30.3311 30.02 30.2586 30.1243 30.1211 30.3222C29.7812 30.8116 29.2724 31.5441 28.7609 33.6545C28.216 34.0411 26.4345 33.609 25.2331 33.3176C23.7368 32.9547 22.4444 32.6415 21.6051 33.0086C20.6908 33.4089 20.2337 34.0768 20.2467 34.9939C20.2567 35.6994 20.5401 36.4681 20.8683 37.3581C21.2194 38.3103 21.61 39.3697 21.7244 40.5233H5.28507C5.41567 40.0775 5.59786 39.5561 5.7967 38.9872C6.64466 36.5612 7.92607 32.8949 7.63863 28.3092C7.62633 28.1123 7.526 27.9313 7.36547 27.8165C2.21062 24.129 0.028676 17.1337 2.05903 10.8053C3.96634 4.86134 8.95499 1.3125 15.4037 1.3125C20.0057 1.3125 23.5617 2.6405 25.973 5.2596C28.4802 7.98295 29.594 11.9795 29.1935 16.8171C29.1919 16.8352 29.1913 16.8532 29.1913 16.8713C29.1913 18.3607 29.9773 19.352 30.8094 20.4015C31.5114 21.2869 32.2342 22.1983 32.5995 23.5413L31.0594 23.832Z" fill="#8347FF"/>
<path d="M10.6226 12.5494C8.08445 12.5494 6.01953 14.6507 6.01953 17.2337C6.01953 19.8166 8.08445 21.918 10.6226 21.918C13.1607 21.918 15.2256 19.8166 15.2256 17.2337C15.2256 14.6507 13.1607 12.5494 10.6226 12.5494ZM10.6226 20.8585C8.65849 20.8585 7.06065 19.2324 7.06065 17.2337C7.06065 15.235 8.65856 13.6089 10.6226 13.6089C12.5867 13.6089 14.1845 15.235 14.1845 17.2337C14.1845 19.2324 12.5866 20.8585 10.6226 20.8585ZM10.2442 16.2199C10.2442 15.5627 9.71874 15.028 9.07286 15.028C8.42704 15.028 7.9016 15.5627 7.9016 16.2199C7.9016 16.8771 8.42704 17.4118 9.07286 17.4118C9.71874 17.4118 10.2442 16.8771 10.2442 16.2199ZM8.94272 16.2199C8.94272 16.1481 9.00232 16.0874 9.07286 16.0874C9.14346 16.0874 9.20306 16.1481 9.20306 16.2199C9.20306 16.2917 9.14346 16.3523 9.07286 16.3523C9.00232 16.3523 8.94272 16.2917 8.94272 16.2199ZM12.1723 15.028C11.5265 15.028 11.0011 15.5627 11.0011 16.2199C11.0011 16.8771 11.5265 17.4118 12.1723 17.4118C12.8181 17.4118 13.3436 16.8771 13.3436 16.2199C13.3436 15.5627 12.8181 15.028 12.1723 15.028ZM12.1723 16.3523C12.1018 16.3523 12.0422 16.2917 12.0422 16.2199C12.0422 16.1481 12.1018 16.0874 12.1723 16.0874C12.2429 16.0874 12.3025 16.1481 12.3025 16.2199C12.3025 16.2917 12.2429 16.3523 12.1723 16.3523ZM12.7369 18.6159C12.9427 18.8202 12.9466 19.1556 12.7458 19.3649C12.6439 19.4713 12.5086 19.5247 12.3733 19.5247C12.2421 19.5247 12.111 19.4745 12.0097 19.374C11.6365 19.0033 11.1438 18.7991 10.6226 18.7991C10.1013 18.7991 9.60871 19.0032 9.2356 19.374C9.02991 19.5785 8.70027 19.5743 8.49953 19.365C8.29866 19.1556 8.30263 18.8202 8.50831 18.6159C9.07702 18.0508 9.82793 17.7396 10.6227 17.7396C11.4173 17.7396 12.1682 18.0508 12.7369 18.6159ZM20.4165 12.5494C17.8783 12.5494 15.8134 14.6507 15.8134 17.2337C15.8134 19.8166 17.8783 21.918 20.4165 21.918C22.9546 21.918 25.0195 19.8166 25.0195 17.2337C25.0195 14.6507 22.9545 12.5494 20.4165 12.5494ZM20.4165 20.8585C18.4524 20.8585 16.8545 19.2324 16.8545 17.2337C16.8545 15.235 18.4524 13.6089 20.4165 13.6089C22.3806 13.6089 23.9784 15.235 23.9784 17.2337C23.9784 19.2324 22.3805 20.8585 20.4165 20.8585ZM20.038 16.2199C20.038 15.5627 19.5126 15.028 18.8667 15.028C18.2209 15.028 17.6955 15.5627 17.6955 16.2199C17.6955 16.8772 18.2209 17.4119 18.8667 17.4119C19.5126 17.4119 20.038 16.8772 20.038 16.2199ZM18.7366 16.2199C18.7366 16.1482 18.7962 16.0875 18.8667 16.0875C18.9373 16.0875 18.9969 16.1482 18.9969 16.2199C18.9969 16.2917 18.9373 16.3524 18.8667 16.3524C18.7962 16.3524 18.7366 16.2917 18.7366 16.2199ZM21.9661 15.028C21.3203 15.028 20.7949 15.5627 20.7949 16.2199C20.7949 16.8772 21.3203 17.4119 21.9661 17.4119C22.612 17.4119 23.1374 16.8772 23.1374 16.2199C23.1374 15.5627 22.612 15.028 21.9661 15.028ZM21.9661 16.3524C21.8956 16.3524 21.836 16.2917 21.836 16.2199C21.836 16.1482 21.8956 16.0875 21.9661 16.0875C22.0367 16.0875 22.0963 16.1482 22.0963 16.2199C22.0963 16.2917 22.0367 16.3524 21.9661 16.3524ZM22.2441 18.8631C22.2441 19.1556 22.011 19.3928 21.7236 19.3928H19.1093C18.8218 19.3928 18.5888 19.1557 18.5888 18.8631C18.5888 18.5705 18.8218 18.3333 19.1093 18.3333H21.7236C22.011 18.3333 22.2441 18.5705 22.2441 18.8631ZM20.1227 8.60227C20.1227 6.01938 18.0578 3.91797 15.5196 3.91797C12.9815 3.91797 10.9166 6.01932 10.9166 8.60227C10.9166 11.1852 12.9815 13.2866 15.5196 13.2866C18.0577 13.2866 20.1227 11.1852 20.1227 8.60227ZM15.5196 12.2272C13.5556 12.2272 11.9577 10.601 11.9577 8.60234C11.9577 6.60362 13.5556 4.97752 15.5196 4.97752C17.4838 4.97752 19.0816 6.60362 19.0816 8.60234C19.0816 10.601 17.4837 12.2272 15.5196 12.2272ZM15.1412 7.58854C15.1412 6.93133 14.6157 6.39663 13.9699 6.39663C13.3241 6.39663 12.7987 6.93133 12.7987 7.58854C12.7987 8.24575 13.3241 8.78046 13.9699 8.78046C14.6157 8.78046 15.1412 8.24582 15.1412 7.58854ZM13.8398 7.58854C13.8398 7.51676 13.8994 7.45611 13.9699 7.45611C14.0405 7.45611 14.1001 7.51676 14.1001 7.58854C14.1001 7.66032 14.0405 7.72098 13.9699 7.72098C13.8994 7.72098 13.8398 7.66032 13.8398 7.58854ZM17.0693 6.39663C16.4234 6.39663 15.898 6.93133 15.898 7.58854C15.898 8.24575 16.4234 8.78046 17.0693 8.78046C17.7151 8.78046 18.2405 8.24575 18.2405 7.58854C18.2405 6.93133 17.7151 6.39663 17.0693 6.39663ZM17.0693 7.72098C16.9987 7.72098 16.9391 7.66032 16.9391 7.58854C16.9391 7.51676 16.9987 7.45611 17.0693 7.45611C17.1398 7.45611 17.1994 7.51676 17.1994 7.58854C17.1994 7.66032 17.1398 7.72098 17.0693 7.72098ZM17.6164 10.0966C17.8135 10.3096 17.8036 10.6448 17.5943 10.8455C17.0307 11.3855 16.294 11.683 15.5196 11.683C14.7453 11.683 14.0085 11.3855 13.4448 10.8455C13.2355 10.6449 13.2256 10.3096 13.4227 10.0966C13.6197 9.88371 13.9492 9.87345 14.1586 10.0741C14.5283 10.4284 15.0116 10.6234 15.5196 10.6234C16.0276 10.6234 16.5108 10.4284 16.8806 10.0741C17.0899 9.87351 17.4194 9.88365 17.6164 10.0966Z" fill="white"/>
</svg>
