<svg width="44" height="44" viewBox="0 0 44 44" fill="none" xmlns="http://www.w3.org/2000/svg">
<path d="M16.499 2.49194C24.2296 2.49194 30.5076 8.7692 30.5078 16.4998C30.5078 24.2305 24.2297 30.5085 16.499 30.5085C8.76846 30.5084 2.49121 24.2304 2.49121 16.4998C2.49139 8.7693 8.76857 2.49212 16.499 2.49194ZM16.499 4.84155C10.0657 4.84173 4.841 10.0664 4.84082 16.4998C4.84082 22.9333 10.0655 28.1578 16.499 28.158C22.9326 28.158 28.1572 22.9334 28.1572 16.4998C28.157 10.0663 22.9325 4.84155 16.499 4.84155Z" fill="#8347FF" stroke="#191B21" stroke-width="0.4"/>
<path d="M29.5996 28.8828C30.7736 27.7071 32.6785 27.7069 33.8545 28.8828L40.6152 35.6436C41.1867 36.2168 41.5088 36.9914 41.5088 37.7998C41.5088 38.6083 41.1865 39.3828 40.6152 39.9541L39.9541 40.6152C39.3828 41.1865 38.6083 41.5088 37.7998 41.5088C36.9914 41.5088 36.2168 41.1867 35.6436 40.6152L28.8828 33.8545C27.7437 32.7154 27.7079 30.8921 28.7754 29.7119L28.8828 29.5996L29.5996 28.8828ZM32.0879 30.459C31.8324 30.2916 31.4862 30.3191 31.2607 30.542L30.542 31.2607C30.2873 31.5183 30.2872 31.9339 30.542 32.1914H30.543L37.3076 38.9561C37.4376 39.0834 37.6141 39.1582 37.7998 39.1582C37.9855 39.1582 38.1621 39.0834 38.292 38.9561L38.9561 38.292C39.0834 38.1621 39.1582 37.9855 39.1582 37.7998C39.1582 37.6141 39.0834 37.4376 38.9561 37.3076L32.1914 30.543V30.542L32.0879 30.459Z" fill="#8347FF" stroke="#191B21" stroke-width="0.4"/>
<path d="M24.8359 24.8362C25.293 24.3778 26.038 24.3778 26.4951 24.8362H26.4961L30.1621 28.5032H30.1631C30.6217 28.9603 30.6216 29.7062 30.1631 30.1633L30.1621 30.1643C29.7049 30.6228 28.959 30.6229 28.502 30.1643V30.1633L24.835 26.4973V26.4963C24.3766 26.0392 24.3766 25.2943 24.835 24.8372L24.8359 24.8362Z" fill="#8347FF" stroke="#191B21" stroke-width="0.4"/>
<path d="M9.625 15.3252C10.2735 15.3252 10.7998 15.8515 10.7998 16.5V20.167C10.7996 20.8154 10.2734 21.3418 9.625 21.3418C8.97657 21.3418 8.45037 20.8154 8.4502 20.167V16.5C8.4502 15.8515 8.97646 15.3252 9.625 15.3252Z" fill="white" stroke="#191B21" stroke-width="0.4"/>
<path d="M14.207 9.8252C14.8556 9.8252 15.3818 10.3515 15.3818 11V20.167C15.3817 20.8154 14.8555 21.3418 14.207 21.3418C13.5586 21.3418 13.0324 20.8154 13.0322 20.167V11C13.0322 10.3515 13.5585 9.8252 14.207 9.8252Z" fill="white" stroke="#191B21" stroke-width="0.4"/>
<path d="M18.791 13.4919C19.4396 13.4919 19.9658 14.0182 19.9658 14.6667V20.1667C19.9658 20.8153 19.4396 21.3416 18.791 21.3416C18.1425 21.3416 17.6162 20.8153 17.6162 20.1667V14.6667C17.6162 14.0182 18.1425 13.4919 18.791 13.4919Z" fill="white" stroke="#191B21" stroke-width="0.4"/>
<path d="M23.375 11.6587C24.0235 11.6587 24.5498 12.185 24.5498 12.8335V20.1665C24.5498 20.815 24.0235 21.3423 23.375 21.3423C22.7265 21.3423 22.2002 20.815 22.2002 20.1665V12.8335C22.2002 12.185 22.7265 11.6587 23.375 11.6587Z" fill="white" stroke="#191B21" stroke-width="0.4"/>
</svg>
