<svg width="34" height="34" viewBox="0 0 34 34" fill="none" xmlns="http://www.w3.org/2000/svg">
<g clip-path="url(#clip0_1749_857)">
<path d="M32.0077 19.0586C32.0077 17.4109 30.6672 16.0703 29.0195 16.0703H24.5813C25.1312 14.5837 25.4722 12.8179 25.6715 11.4802C25.8729 10.1299 25.4777 8.7631 24.5873 7.73009C23.6996 6.70012 22.4105 6.10938 21.0507 6.10938C20.5006 6.10938 20.0546 6.55536 20.0546 7.10547C20.0546 9.51183 18.6717 13.1445 17.0578 13.9537C15.2412 14.8643 11.6675 15.8735 10.9557 16.0703C10.5113 16.0703 1.42561 16.0703 0.996094 16.0703C0.445984 16.0703 7.41486e-09 16.5163 7.41486e-09 17.0664V31.0117C-6.63988e-05 31.5618 0.445918 32.0078 0.996027 32.0078H3.98431V33.0039C3.98431 33.554 4.43029 34 4.9804 34H9.09759C10.3142 34 11.3626 33.2688 11.8283 32.2231L18.8169 33.9702C18.896 33.99 18.9771 34 19.0585 34H25.0351C26.6828 34 28.0234 32.6595 28.0234 31.0117C28.0234 30.6231 27.9488 30.2516 27.8133 29.9108C29.0808 29.5648 30.0156 28.4031 30.0156 27.0273C30.0156 26.6387 29.941 26.2673 29.8054 25.9264C31.073 25.5804 32.0077 24.4188 32.0077 23.043C32.0077 22.2783 31.7191 21.5798 31.245 21.0508C31.7191 20.5217 32.0077 19.8233 32.0077 19.0586ZM3.98424 30.0156H1.99205V18.0625H3.98424V30.0156ZM10.0936 31.0117C10.0936 31.561 9.64677 32.0078 9.09752 32.0078H5.97643V18.0625H10.0936V31.0117ZM23.0429 22.0469H29.0195C29.5687 22.0469 30.0156 22.4937 30.0156 23.043C30.0156 23.5922 29.5687 24.0391 29.0195 24.0391C28.2684 24.0391 23.6568 24.0391 23.0429 24.0391C22.4928 24.0391 22.0468 24.485 22.0468 25.0352C22.0468 25.5853 22.4928 26.0312 23.0429 26.0312H27.0273C27.5765 26.0312 28.0234 26.4781 28.0234 27.0273C28.0234 27.5766 27.5765 28.0234 27.0273 28.0234C26.605 28.0234 23.4652 28.0234 23.0429 28.0234C22.4928 28.0234 22.0468 28.4694 22.0468 29.0195C22.0468 29.5696 22.4928 30.0156 23.0429 30.0156H25.0351C25.5843 30.0156 26.0312 30.4625 26.0312 31.0117C26.0312 31.561 25.5843 32.0078 25.0351 32.0078H19.1812L12.0859 30.234V17.8218C13.4298 17.436 16.2804 16.5719 17.9506 15.7346C20.2383 14.5877 21.6391 10.9601 21.9705 8.26432C22.3942 8.41932 22.7767 8.68082 23.0784 9.03078C23.59 9.62426 23.817 10.41 23.7012 11.1865C23.2294 14.351 22.6375 15.65 22.152 16.6209C21.9976 16.9297 22.0141 17.2964 22.1956 17.59C22.377 17.8837 22.6977 18.0625 23.0429 18.0625H29.0195C29.5687 18.0625 30.0156 18.5093 30.0156 19.0586C30.0156 19.6078 29.5687 20.0547 29.0195 20.0547H23.0429C22.4928 20.0547 22.0468 20.5007 22.0468 21.0508C22.0468 21.6009 22.4928 22.0469 23.0429 22.0469Z" fill="#8347FF"/>
<path d="M22.0469 0C21.4968 0 21.0508 0.445984 21.0508 0.996094V3.12109C21.0508 3.6712 21.4968 4.11719 22.0469 4.11719C22.597 4.11719 23.043 3.6712 23.043 3.12109V0.996094C23.043 0.445984 22.597 0 22.0469 0Z" fill="white"/>
<path d="M16.4118 5.04247L15.0032 3.6338C14.6142 3.24479 13.9835 3.24479 13.5945 3.6338C13.2055 4.0228 13.2055 4.65346 13.5945 5.04247L15.0032 6.45115C15.3921 6.84016 16.0229 6.84016 16.4118 6.45115C16.8008 6.06214 16.8008 5.43148 16.4118 5.04247Z" fill="white"/>
<path d="M13.082 11.0898H11.0898C10.5397 11.0898 10.0938 11.5358 10.0938 12.0859C10.0938 12.636 10.5397 13.082 11.0898 13.082H13.082C13.6321 13.082 14.0781 12.636 14.0781 12.0859C14.0781 11.5358 13.6321 11.0898 13.082 11.0898Z" fill="white"/>
<path d="M33.0039 11.0898H31.0117C30.4616 11.0898 30.0156 11.5358 30.0156 12.0859C30.0156 12.636 30.4616 13.082 31.0117 13.082H33.0039C33.554 13.082 34 12.636 34 12.0859C34 11.5358 33.554 11.0898 33.0039 11.0898Z" fill="white"/>
<path d="M30.4997 3.6338C30.1108 3.24479 29.4801 3.24479 29.0911 3.6338L27.6824 5.04247C27.2934 5.43148 27.2934 6.06214 27.6824 6.45115C28.0713 6.84016 28.7021 6.84016 29.0911 6.45115L30.4997 5.04247C30.8887 4.65346 30.8887 4.0228 30.4997 3.6338Z" fill="white"/>
</g>
<defs>
<clipPath id="clip0_1749_857">
<rect width="34" height="34" fill="white"/>
</clipPath>
</defs>
</svg>
