<svg width="100" height="75" viewBox="0 0 100 75" fill="none" xmlns="http://www.w3.org/2000/svg">
<g opacity="0.03">
<path d="M75.738 0C61.6464 0 51.4742 11.6336 51.4746 28.859C51.5648 53.8865 70.3793 71.5817 97.5219 74.9799C100.04 75.2952 101.011 71.8068 98.6921 70.7757C88.2773 66.1447 83.0173 60.2681 82.3379 54.4515C81.8303 50.1058 84.1926 46.2991 87.159 45.5863C94.8492 43.7383 100.002 34.1616 100.002 24.2637C100.002 10.8632 89.1385 0 75.738 0Z" fill="#191B21"/>
<path d="M24.2634 0C10.1718 0 -0.000377655 11.6336 -3.8147e-05 28.859C0.09021 53.8865 18.9047 71.5817 46.0473 74.9799C48.5655 75.2952 49.5365 71.8068 47.2175 70.7757C36.8027 66.1447 31.5427 60.2681 30.8633 54.4515C30.3556 50.1058 32.718 46.2991 35.6844 45.5863C43.3746 43.7383 48.5271 34.1616 48.5271 24.2637C48.5271 10.8632 37.6639 0 24.2634 0Z" fill="#191B21"/>
</g>
</svg>
