<svg width="110" height="110" viewBox="0 0 110 110" fill="none" xmlns="http://www.w3.org/2000/svg">
<path d="M78.9216 15C92.6205 15 103.726 26.1051 103.726 39.8039C103.726 49.9221 98.4583 59.7121 90.5969 61.6012C87.5645 62.3299 85.1495 66.2213 85.6684 70.6638C86.363 76.6099 91.7401 82.6173 102.387 87.3514C104.757 88.4055 103.765 91.9715 101.191 91.6492C73.4436 88.1754 54.2103 70.0862 54.118 44.4934C54.1177 26.8926 64.5164 15 78.9216 15Z" fill="url(#paint0_linear_53_35)"/>
<path d="M24.8036 15C38.5024 15 49.6076 26.1051 49.6076 39.8039C49.6076 49.9221 44.3403 59.7121 36.4789 61.6012C33.4465 62.3299 31.0315 66.2213 31.5504 70.6638C32.245 76.6099 37.6221 82.6173 48.2688 87.3514C50.6394 88.4055 49.6468 91.9715 47.0725 91.6492C19.3256 88.1754 0.0922706 70.0862 7.96533e-09 44.4934C-0.00033232 26.8926 10.3983 15 24.8036 15Z" fill="url(#paint1_linear_53_35)"/>
<defs>
<linearGradient id="paint0_linear_53_35" x1="68.1347" y1="10.4158" x2="95.5811" y2="94.3354" gradientUnits="userSpaceOnUse">
<stop stop-color="#AFF1FF"/>
<stop offset="1" stop-color="white"/>
</linearGradient>
<linearGradient id="paint1_linear_53_35" x1="14.0167" y1="10.4158" x2="41.4631" y2="94.3354" gradientUnits="userSpaceOnUse">
<stop stop-color="#AFF1FF"/>
<stop offset="1" stop-color="white"/>
</linearGradient>
</defs>
</svg>
