<svg width="11" height="9" viewBox="0 0 11 9" fill="none" xmlns="http://www.w3.org/2000/svg">
<path d="M2.93439 0.762695C4.43503 0.762695 5.5183 2.00159 5.51826 3.83597C5.50865 6.50122 3.50505 8.38563 0.614558 8.74751C0.34639 8.78109 0.242988 8.4096 0.489937 8.29979C1.59904 7.80662 2.1592 7.18081 2.23155 6.56139C2.2856 6.0986 2.03403 5.69321 1.71813 5.6173C0.89918 5.42051 0.350476 4.40065 0.350476 3.34661C0.350476 1.91955 1.50733 0.762695 2.93439 0.762695Z" fill="#191B21"/>
<path d="M8.41608 0.762695C9.91672 0.762695 11 2.00159 11 3.83597C10.9903 6.50122 8.98674 8.38563 6.09625 8.74751C5.82808 8.78109 5.72468 8.4096 5.97163 8.29979C7.08073 7.80662 7.64089 7.18081 7.71324 6.56139C7.76729 6.0986 7.51572 5.69321 7.19982 5.6173C6.38087 5.42051 5.83217 4.40065 5.83217 3.34661C5.83217 1.91955 6.98902 0.762695 8.41608 0.762695Z" fill="#191B21"/>
</svg>
