<svg width="42" height="42" viewBox="0 0 42 42" fill="none" xmlns="http://www.w3.org/2000/svg">
<path fill-rule="evenodd" clip-rule="evenodd" d="M20.5021 1.42169C20.5675 1.2018 20.7702 1.05005 21 1.05005C21.2299 1.05005 21.4326 1.2018 21.498 1.42169C21.498 1.42169 22.4094 4.47667 23.3862 7.75336C24.9428 12.9737 29.0264 17.0573 34.2467 18.6139C37.5234 19.5907 40.5784 20.5021 40.5784 20.5021C40.7983 20.5675 40.95 20.7702 40.95 21.0001C40.95 21.2299 40.7983 21.4326 40.5784 21.498C40.5784 21.498 37.5234 22.4094 34.2467 23.3862C29.0264 24.9428 24.9428 29.0264 23.3862 34.2468C22.4094 37.5234 21.498 40.5784 21.498 40.5784C21.4326 40.7983 21.2299 40.9501 21 40.9501C20.7702 40.9501 20.5675 40.7983 20.5021 40.5784C20.5021 40.5784 19.5907 37.5234 18.6138 34.2468C17.0573 29.0264 12.9737 24.9428 7.75334 23.3862C4.47667 22.4094 1.42169 21.498 1.42169 21.498C1.20179 21.4326 1.05005 21.2299 1.05005 21.0001C1.05005 20.7702 1.20179 20.5675 1.42169 20.5021C1.42169 20.5021 4.47667 19.5907 7.75334 18.6139C12.9737 17.0573 17.0573 12.9737 18.6138 7.75336C19.5907 4.47667 20.5021 1.42169 20.5021 1.42169Z" fill="url(#paint0_linear_47_58)"/>
<defs>
<linearGradient id="paint0_linear_47_58" x1="0.55476" y1="25.7901" x2="41.7144" y2="24.4453" gradientUnits="userSpaceOnUse">
<stop stop-color="#F5B741"/>
<stop offset="1" stop-color="#9CC68E"/>
</linearGradient>
</defs>
</svg>
