<svg width="40" height="40" viewBox="0 0 40 40" fill="none" xmlns="http://www.w3.org/2000/svg">
<g clip-path="url(#clip0_47_53)">
<path d="M37.5 17.8125H28.1637L36.25 13.1438C36.7522 12.8537 37.1187 12.376 37.2689 11.8158C37.419 11.2555 37.3405 10.6586 37.0506 10.1562C36.7605 9.65401 36.2829 9.28753 35.7226 9.1374C35.1624 8.98726 34.5655 9.06576 34.0631 9.35563L25.9762 14.0238L30.6444 5.9375C30.9342 5.43513 31.0127 4.83821 30.8626 4.27799C30.7125 3.71776 30.346 3.24009 29.8438 2.95C29.3414 2.65988 28.7444 2.58118 28.184 2.7312C27.6237 2.88123 27.1458 3.2477 26.8556 3.75L22.1875 11.8363V2.5C22.1875 1.91984 21.957 1.36344 21.5468 0.953204C21.1366 0.542968 20.5802 0.3125 20 0.3125C19.4198 0.3125 18.8634 0.542968 18.4532 0.953204C18.043 1.36344 17.8125 1.91984 17.8125 2.5V11.8363L13.1444 3.75C12.8543 3.24776 12.3766 2.88128 11.8164 2.73115C11.2562 2.58101 10.6592 2.65951 10.1569 2.94937C9.90805 3.09296 9.68995 3.28415 9.51502 3.51203C9.3401 3.73991 9.21177 4.00001 9.13736 4.27749C9.06296 4.55496 9.04394 4.84438 9.08139 5.1292C9.11884 5.41403 9.21202 5.68869 9.35563 5.9375L14.0231 14.0231L5.9375 9.35563C5.43513 9.06576 4.83821 8.98726 4.27799 9.1374C3.71776 9.28753 3.24009 9.65401 2.95 10.1562C2.66008 10.6585 2.58149 11.2554 2.7315 11.8156C2.88152 12.3758 3.24787 12.8536 3.75 13.1438L11.8363 17.8125H2.5C1.91984 17.8125 1.36344 18.043 0.953204 18.4532C0.542968 18.8634 0.3125 19.4198 0.3125 20C0.3125 20.5802 0.542968 21.1366 0.953204 21.5468C1.36344 21.957 1.91984 22.1875 2.5 22.1875H11.8363L3.75 26.8563C3.24787 27.1464 2.88152 27.6242 2.7315 28.1844C2.58149 28.7446 2.66008 29.3415 2.95 29.8438C3.24009 30.346 3.71776 30.7125 4.27799 30.8626C4.83821 31.0127 5.43513 30.9342 5.9375 30.6444L14.0231 25.9769L9.35563 34.0625C9.06576 34.5649 8.98726 35.1618 9.1374 35.722C9.28753 36.2822 9.65401 36.7599 10.1562 37.05C10.6586 37.3401 11.2556 37.4188 11.816 37.2688C12.3764 37.1188 12.8542 36.7523 13.1444 36.25L17.8125 28.1644V37.5C17.8125 38.0802 18.043 38.6366 18.4532 39.0468C18.8634 39.457 19.4198 39.6875 20 39.6875C20.5802 39.6875 21.1366 39.457 21.5468 39.0468C21.957 38.6366 22.1875 38.0802 22.1875 37.5V28.1644L26.8556 36.25C27.1457 36.7522 27.6234 37.1187 28.1836 37.2689C28.7438 37.419 29.3408 37.3405 29.8431 37.0506C30.3454 36.7605 30.7118 36.2829 30.862 35.7226C31.0121 35.1624 30.9336 34.5655 30.6437 34.0631L25.9762 25.9769L34.0625 30.6444C34.5649 30.9342 35.1618 31.0127 35.722 30.8626C36.2822 30.7125 36.7599 30.346 37.05 29.8438C37.3399 29.3415 37.4185 28.7446 37.2685 28.1844C37.1185 27.6242 36.7521 27.1464 36.25 26.8563L28.1637 22.1875H37.5C38.0802 22.1875 38.6366 21.957 39.0468 21.5468C39.457 21.1366 39.6875 20.5802 39.6875 20C39.6875 19.4198 39.457 18.8634 39.0468 18.4532C38.6366 18.043 38.0802 17.8125 37.5 17.8125Z" fill="url(#paint0_linear_47_53)"/>
</g>
<defs>
<linearGradient id="paint0_linear_47_53" x1="-3.16873" y1="32.4702" x2="44.1821" y2="9.63069" gradientUnits="userSpaceOnUse">
<stop stop-color="#40ACCB"/>
<stop offset="1" stop-color="#2C78C1"/>
</linearGradient>
<clipPath id="clip0_47_53">
<rect width="40" height="40" fill="white"/>
</clipPath>
</defs>
</svg>
