<svg width="19" height="19" viewBox="0 0 19 19" fill="none" xmlns="http://www.w3.org/2000/svg">
<path d="M10.2994 2.31167L14.9702 4.38584C16.316 4.97959 16.316 5.96125 14.9702 6.555L10.2994 8.62917C9.76896 8.86667 8.89812 8.86667 8.36771 8.62917L3.69688 6.555C2.35104 5.96125 2.35104 4.97959 3.69688 4.38584L8.36771 2.31167C8.89812 2.07417 9.76896 2.07417 10.2994 2.31167Z" stroke="#191B21" stroke-width="1.5" stroke-linecap="round" stroke-linejoin="round"/>
<path d="M2.375 8.70837C2.375 9.37337 2.87375 10.1413 3.48333 10.4105L8.85875 12.8013C9.27042 12.9834 9.7375 12.9834 10.1413 12.8013L15.5167 10.4105C16.1263 10.1413 16.625 9.37337 16.625 8.70837" stroke="#8348FF" stroke-width="1.5" stroke-linecap="round" stroke-linejoin="round"/>
<path d="M2.375 12.6666C2.375 13.4029 2.81042 14.0679 3.48333 14.3687L8.85875 16.7595C9.27042 16.9416 9.7375 16.9416 10.1413 16.7595L15.5167 14.3687C16.1896 14.0679 16.625 13.4029 16.625 12.6666" stroke="#191B21" stroke-width="1.5" stroke-linecap="round" stroke-linejoin="round"/>
</svg>
