<svg width="20" height="18" viewBox="0 0 20 18" fill="none" xmlns="http://www.w3.org/2000/svg">
<path d="M15.3697 12.6225L15.6753 14.9925C15.7536 15.615 15.0562 16.05 14.4999 15.7275L11.2166 13.86C10.8561 13.86 10.5035 13.8375 10.1587 13.7925C10.7386 13.14 11.0834 12.315 11.0834 11.4225C11.0834 9.29249 9.1557 7.56752 6.77355 7.56752C5.86457 7.56752 5.02612 7.815 4.32871 8.25C4.30521 8.0625 4.29736 7.87499 4.29736 7.67999C4.29736 4.26749 7.39259 1.5 11.2166 1.5C15.0406 1.5 18.1358 4.26749 18.1358 7.67999C18.1358 9.70499 17.0466 11.4975 15.3697 12.6225Z" stroke="white" stroke-width="1.5" stroke-linecap="round" stroke-linejoin="round"/>
<path d="M11.0832 11.4223C11.0832 12.3148 10.7385 13.1399 10.1586 13.7924C9.38284 14.6924 8.15257 15.2699 6.77343 15.2699L4.72823 16.4323C4.38345 16.6348 3.94463 16.3574 3.99164 15.9749L4.18755 14.4974C3.13752 13.7999 2.46362 12.6823 2.46362 11.4223C2.46362 10.1023 3.20021 8.93986 4.3286 8.24986C5.02601 7.81486 5.86446 7.56738 6.77343 7.56738C9.15559 7.56738 11.0832 9.29235 11.0832 11.4223Z" stroke="white" stroke-width="1.5" stroke-linecap="round" stroke-linejoin="round"/>
</svg>
