<svg width="15" height="18" viewBox="0 0 15 18" fill="none" xmlns="http://www.w3.org/2000/svg">
<g clip-path="url(#clip0_1746_649)">
<path d="M4.30286 17.3072H0.824399C0.726141 17.3072 0.628844 17.2879 0.538065 17.2502C0.447286 17.2125 0.364802 17.1573 0.295323 17.0877C0.225843 17.0181 0.170729 16.9355 0.133127 16.8445C0.0955255 16.7536 0.0761719 16.6561 0.0761719 16.5577V8.75193L2.70193 7.97681L5.05109 8.75193V16.5577C5.05109 16.6561 5.03174 16.7536 4.99413 16.8445C4.95653 16.9355 4.90142 17.0181 4.83194 17.0877C4.76246 17.1573 4.67998 17.2125 4.5892 17.2502C4.49842 17.2879 4.40112 17.3072 4.30286 17.3072Z" fill="#185C37"/>
<path d="M9.69313 0.695068H14.2269C14.4319 0.695068 14.6285 0.776628 14.7734 0.921806C14.9183 1.06698 14.9997 1.26389 14.9997 1.4692V10.5528C14.9997 10.7581 14.9183 10.955 14.7734 11.1002C14.6285 11.2453 14.4319 11.3269 14.2269 11.3269H9.69313L8.80859 5.65117L9.69313 0.695068Z" fill="#33C481"/>
<path d="M0.0761719 1.4692V9.00119H5.05109V14.3171H9.25324C9.45819 14.3171 9.65475 14.2356 9.79967 14.0904C9.94459 13.9452 10.026 13.7483 10.026 13.543V0.695068H0.848943C0.643991 0.695068 0.447434 0.776628 0.302511 0.921806C0.157588 1.06698 0.0761719 1.26389 0.0761719 1.4692Z" fill="#107C41"/>
<path d="M5.05078 0.695068H10.0257V6.34323H5.05078V0.695068Z" fill="#21A366"/>
</g>
<defs>
<clipPath id="clip0_1746_649">
<rect width="15" height="18" fill="white"/>
</clipPath>
</defs>
</svg>
