<svg width="21" height="20" viewBox="0 0 21 20" fill="none" xmlns="http://www.w3.org/2000/svg">
<g clip-path="url(#clip0_1746_736)">
<path d="M4.49817 12.5985C4.49817 13.7481 3.52258 14.6773 2.31549 14.6773C1.1084 14.6773 0.132812 13.7481 0.132812 12.5985C0.132812 11.4489 1.1084 10.5198 2.31549 10.5198H4.49817V12.5985ZM5.58951 12.5985C5.58951 11.4489 6.5651 10.5198 7.77218 10.5198C8.97927 10.5198 9.95486 11.4489 9.95486 12.5985V17.7954C9.95486 18.945 8.97927 19.8741 7.77218 19.8741C6.5651 19.8741 5.58951 18.945 5.58951 17.7954V12.5985Z" fill="#E01E5A"/>
<path d="M7.77114 4.25196C6.56405 4.25196 5.58846 3.32283 5.58846 2.17322C5.58846 1.02362 6.56405 0.0944824 7.77114 0.0944824C8.97823 0.0944824 9.95382 1.02362 9.95382 2.17322V4.25196H7.77114ZM7.77114 5.30708C8.97823 5.30708 9.95382 6.23622 9.95382 7.38582C9.95382 8.53543 8.97823 9.46456 7.77114 9.46456H2.29791C1.09082 9.46456 0.115234 8.53543 0.115234 7.38582C0.115234 6.23622 1.09082 5.30708 2.29791 5.30708H7.77114Z" fill="#36C5F0"/>
<path d="M16.5192 7.38582C16.5192 6.23622 17.4948 5.30708 18.7019 5.30708C19.909 5.30708 20.8845 6.23622 20.8845 7.38582C20.8845 8.53543 19.909 9.46456 18.7019 9.46456H16.5192V7.38582ZM15.4279 7.38582C15.4279 8.53543 14.4523 9.46456 13.2452 9.46456C12.0381 9.46456 11.0625 8.53543 11.0625 7.38582V2.17322C11.0625 1.02362 12.0381 0.0944824 13.2452 0.0944824C14.4523 0.0944824 15.4279 1.02362 15.4279 2.17322V7.38582V7.38582Z" fill="#2EB67D"/>
<path d="M13.2452 15.7166C14.4523 15.7166 15.4279 16.6458 15.4279 17.7954C15.4279 18.945 14.4523 19.8741 13.2452 19.8741C12.0381 19.8741 11.0625 18.945 11.0625 17.7954V15.7166H13.2452ZM13.2452 14.6773C12.0381 14.6773 11.0625 13.7481 11.0625 12.5985C11.0625 11.4489 12.0381 10.5198 13.2452 10.5198H18.7184C19.9255 10.5198 20.9011 11.4489 20.9011 12.5985C20.9011 13.7481 19.9255 14.6773 18.7184 14.6773H13.2452Z" fill="#ECB22E"/>
</g>
<defs>
<clipPath id="clip0_1746_736">
<rect width="21" height="20" fill="white"/>
</clipPath>
</defs>
</svg>
