<svg width="25" height="28" viewBox="0 0 25 28" fill="none" xmlns="http://www.w3.org/2000/svg">
<g filter="url(#filter0_d_1746_667)">
<path d="M15.2907 18.3334H20.0417C20.2948 18.3334 20.5 18.5386 20.5 18.7917C20.5 19.0449 20.2948 19.2501 20.0417 19.2501H4.45833C4.2052 19.2501 4 19.0449 4 18.7917C4 18.5386 4.2052 18.3334 4.45833 18.3334H12.2478L12.2493 18.3334C13.4572 18.3317 14.6223 17.8596 15.4909 16.991C17.2808 15.2011 17.2808 12.2991 15.4909 10.5092C15.1421 10.1604 14.7511 9.87959 14.3344 9.66674C14.317 9.65933 14.3 9.6508 14.2834 9.64112C12.7565 8.88525 10.8959 9.03269 9.49903 10.0834H10.875C11.1281 10.0834 11.3333 10.2886 11.3333 10.5417C11.3333 10.7949 11.1281 11.0001 10.875 11.0001H8.125C7.87187 11.0001 7.66667 10.7949 7.66667 10.5417V7.79175C7.66667 7.53862 7.87187 7.33341 8.125 7.33341C8.37813 7.33341 8.58333 7.53862 8.58333 7.79175V9.65042C9.92535 8.44802 11.7159 8.01995 13.3773 8.36621C13.2438 8.02578 13.1667 7.66861 13.1667 7.33341C13.1667 5.81463 14.3979 4.58341 15.9167 4.58341H16.1852L16.0509 4.44917C15.8719 4.27018 15.8719 3.97998 16.0509 3.80099C16.2299 3.622 16.5201 3.622 16.6991 3.80099L17.6158 4.71766C17.7947 4.89665 17.7947 5.18685 17.6158 5.36584L16.6991 6.28251C16.5201 6.4615 16.2299 6.4615 16.0509 6.28251C15.8719 6.10351 15.8719 5.81331 16.0509 5.63432L16.1852 5.50008H15.9167C14.9041 5.50008 14.0833 6.32089 14.0833 7.33341C14.0833 7.84793 14.386 8.50013 14.7724 8.86093C15.2646 9.11501 15.7265 9.44837 16.1391 9.86099C18.287 12.0089 18.287 15.4913 16.1391 17.6392C15.8772 17.9011 15.5927 18.133 15.2907 18.3334Z" fill="black"/>
</g>
<defs>
<filter id="filter0_d_1746_667" x="-2.75" y="0" width="30" height="30" filterUnits="userSpaceOnUse" color-interpolation-filters="sRGB">
<feFlood flood-opacity="0" result="BackgroundImageFix"/>
<feColorMatrix in="SourceAlpha" type="matrix" values="0 0 0 0 0 0 0 0 0 0 0 0 0 0 0 0 0 0 127 0" result="hardAlpha"/>
<feOffset dy="4"/>
<feGaussianBlur stdDeviation="2"/>
<feComposite in2="hardAlpha" operator="out"/>
<feColorMatrix type="matrix" values="0 0 0 0 0 0 0 0 0 0 0 0 0 0 0 0 0 0 0.25 0"/>
<feBlend mode="normal" in2="BackgroundImageFix" result="effect1_dropShadow_1746_667"/>
<feBlend mode="normal" in="SourceGraphic" in2="effect1_dropShadow_1746_667" result="shape"/>
</filter>
</defs>
</svg>
