<svg width="21" height="21" viewBox="0 0 21 21" fill="none" xmlns="http://www.w3.org/2000/svg">
<path d="M10.4789 3.68408C6.75771 3.68408 3.68359 6.7582 3.68359 10.4794C3.68359 14.2004 6.75771 17.2746 10.4789 17.2746C14.2 17.2746 17.2741 14.2004 17.2741 10.4794C17.2741 6.7582 14.2 3.68408 10.4789 3.68408Z" fill="#7ED8F6"/>
<path d="M17.2738 10.4794C17.2738 14.2004 14.1997 17.2746 10.4785 17.2746V3.68408C14.1997 3.68408 17.2738 6.7582 17.2738 10.4794Z" fill="#6AA9FF"/>
<path d="M20.9589 10.4795C20.9589 12.8372 20.1484 15.1993 18.6624 17.0414L17.7045 16.28C19.0308 14.6221 19.7308 12.5916 19.7308 10.4795C19.7308 5.39528 15.5636 1.22806 10.4795 1.22806C5.39528 1.22806 1.22806 5.39528 1.22806 10.4795C1.22806 15.5636 5.39528 19.7308 10.4795 19.7308C12.1005 19.7308 13.6847 19.301 15.0847 18.4905L15.6987 19.5589C14.1145 20.48 12.3093 20.9589 10.4795 20.9589C4.71985 20.9589 0 16.2391 0 10.4795C0 4.71985 4.71985 0 10.4795 0C16.2391 0 20.9589 4.71985 20.9589 10.4795Z" fill="#FF9100"/>
<path d="M15.0837 18.4905L15.6978 19.5589C14.1136 20.4799 12.3083 20.9589 10.4785 20.9589V19.7308C12.0996 19.7308 13.6838 19.301 15.0837 18.4905Z" fill="#FF641A"/>
<path d="M20.958 10.4795C20.958 12.8372 20.1474 15.1993 18.6615 17.0414L17.7036 16.28C19.0299 14.6221 19.7299 12.5916 19.7299 10.4795C19.7299 5.39528 15.5627 1.22806 10.4785 1.22806V0C16.2381 0 20.958 4.71985 20.958 10.4795Z" fill="#FF641A"/>
<path d="M20.9576 17.2745H17.2734V13.5903H18.5015V16.0465H20.9576V17.2745Z" fill="#FF641A"/>
</svg>
