<svg width="23" height="22" viewBox="0 0 23 22" fill="none" xmlns="http://www.w3.org/2000/svg">
<path d="M21.7428 10.3916L12.288 1.03727L11.3719 0.130859L4.25451 7.17256L0.999917 10.3916C0.837352 10.5533 0.746094 10.772 0.746094 11.0001C0.746094 11.2281 0.837352 11.4469 0.999917 11.6086L7.50224 18.0418L11.3719 21.8693L18.4882 14.8276L18.5991 14.7189L21.7428 11.6134C21.8243 11.5334 21.889 11.4382 21.9331 11.3334C21.9772 11.2285 21.9999 11.1161 21.9999 11.0025C21.9999 10.8889 21.9772 10.7765 21.9331 10.6716C21.889 10.5668 21.8243 10.4716 21.7428 10.3916ZM11.3719 14.2143L8.12315 11.0001L11.3719 7.78589L14.6196 11.0001L11.3719 14.2143Z" fill="#2684FF"/>
<path d="M11.3723 7.78581C10.3506 6.77519 9.77461 5.4056 9.7702 3.9762C9.76579 2.5468 10.3333 1.17376 11.3488 0.156982L4.24023 7.18704L8.10887 11.0146L11.3723 7.78581Z" fill="url(#paint0_linear_1746_453)"/>
<path d="M14.6277 10.9912L11.3711 14.2141C12.3967 15.2291 12.9728 16.6055 12.9728 18.0407C12.9728 19.4758 12.3967 20.8523 11.3711 21.8672L18.4992 14.8187L14.6277 10.9912Z" fill="url(#paint1_linear_1746_453)"/>
<defs>
<linearGradient id="paint0_linear_1746_453" x1="10.7906" y1="4.53378" x2="6.30247" y2="9.06918" gradientUnits="userSpaceOnUse">
<stop offset="0.18" stop-color="#0052CC"/>
<stop offset="1" stop-color="#2684FF"/>
</linearGradient>
<linearGradient id="paint1_linear_1746_453" x1="11.991" y1="17.4273" x2="16.4704" y2="12.9008" gradientUnits="userSpaceOnUse">
<stop offset="0.18" stop-color="#0052CC"/>
<stop offset="1" stop-color="#2684FF"/>
</linearGradient>
</defs>
</svg>
