<svg width="19" height="17" viewBox="0 0 19 17" fill="none" xmlns="http://www.w3.org/2000/svg">
<path d="M14.868 8.9999C12.5856 8.9999 10.7356 10.7906 10.7356 12.9997C10.7356 15.2089 12.5856 17 14.868 17C17.1501 17 19 15.2089 19 12.9997C19 10.7906 17.1501 8.9999 14.868 8.9999ZM4.13218 9.00009C1.85013 9.00028 0 10.7906 0 12.9999C0 15.2089 1.85013 16.9998 4.13218 16.9998C6.41441 16.9998 8.26455 15.2089 8.26455 12.9999C8.26455 10.7906 6.41461 9.00009 4.13218 9.00009ZM13.6322 3.99996C13.6322 6.20898 11.7822 8.00029 9.5002 8.00029C7.21776 8.00029 5.36782 6.20898 5.36782 3.99996C5.36782 1.79093 7.21776 0 9.5002 0C11.7822 0 13.632 1.79093 13.632 3.99996H13.6322Z" fill="url(#paint0_radial_1746_749)"/>
<defs>
<radialGradient id="paint0_radial_1746_749" cx="0" cy="0" r="1" gradientUnits="userSpaceOnUse" gradientTransform="translate(9.50003 929.084) scale(1259 1126.47)">
<stop stop-color="#FFB900"/>
<stop offset="0.6" stop-color="#F95D8F"/>
<stop offset="0.9991" stop-color="#F95353"/>
</radialGradient>
</defs>
</svg>
