<svg width="22" height="22" viewBox="0 0 22 22" fill="none" xmlns="http://www.w3.org/2000/svg">
<path d="M18.33 8.08684C17.3132 4.03628 13.2053 1.57693 9.15479 2.59372C5.98937 3.38834 3.69092 6.12416 3.4541 9.37916C1.20652 9.74981 -0.31505 11.8723 0.0556011 14.1199C0.385092 16.118 2.11646 17.5813 4.14152 17.5733H7.57865V16.1984H4.14152C2.62292 16.1984 1.39183 14.9673 1.39183 13.4487C1.39183 11.9301 2.62292 10.699 4.14152 10.699C4.5212 10.699 4.82895 10.3913 4.82895 10.0116C4.82551 6.5947 7.5927 3.82198 11.0096 3.81858C13.9674 3.81562 16.5136 5.90668 17.0857 8.8086C17.1422 9.09835 17.3774 9.3197 17.67 9.35854C19.5494 9.62616 20.8559 11.3666 20.5883 13.2459C20.348 14.9334 18.9072 16.1899 17.2026 16.1984H14.4529V17.5733H17.2026C19.8602 17.5652 22.008 15.4043 22 12.7467C21.9933 10.5345 20.479 8.61182 18.33 8.08684Z" fill="#515053"/>
<path d="M10.527 10.8985L7.77734 13.6482L8.74661 14.6175L10.3277 13.0433V19.6357H11.7025V13.0433L13.2767 14.6175L14.246 13.6482L11.4963 10.8985C11.2282 10.632 10.7952 10.632 10.527 10.8985Z" fill="#515053"/>
</svg>
