<svg width="21" height="17" viewBox="0 0 21 17" fill="none" xmlns="http://www.w3.org/2000/svg">
<path d="M12.0156 0.365723C8.28005 -0.583775 4.49595 1.68911 3.51562 5.44482C1.5396 5.97477 0.156596 7.78276 0.150391 9.85693C0.142811 12.3842 2.16076 14.4428 4.66113 14.4507H7.31152V12.8843H4.66309C3.18949 12.8768 1.94086 11.7772 1.73242 10.2964C1.50044 8.64663 2.63376 7.12152 4.25879 6.88721V6.88623C4.58893 6.84107 4.85278 6.58862 4.91602 6.26025C5.42296 3.65865 7.67645 1.78592 10.292 1.78857C13.3136 1.79166 15.7637 4.27523 15.7607 7.33936C15.7607 7.76992 16.1064 8.12256 16.5361 8.12256C17.8319 8.12276 18.8857 9.18679 18.8857 10.5034C18.8857 11.8201 17.8319 12.8841 16.5361 12.8843H13.2607V14.4507H16.5361V14.4497C18.4518 14.4569 20.0873 13.0555 20.3984 11.145C20.7418 9.03553 19.3632 7.0394 17.3008 6.63135C17.0363 3.62263 14.9197 1.10404 12.0156 0.365723Z" fill="#8348FF" stroke="#8348FF" stroke-width="0.3"/>
<path d="M10.7686 8.07959C10.49 7.80291 10.0402 7.80275 9.76172 8.07959L7.39844 10.4429L7.50488 10.5483L8.30078 11.3442L8.40625 11.4507L9.54883 10.3081V16.7974H10.9766V10.3062L12.0186 11.3442L12.125 11.4497L13.1318 10.4429L13.0264 10.3364L10.7695 8.07959H10.7686Z" fill="#8348FF" stroke="#8348FF" stroke-width="0.3"/>
</svg>
