<svg width="19" height="19" viewBox="0 0 19 19" fill="none" xmlns="http://www.w3.org/2000/svg">
<path d="M7.25104 8.60546C7.17188 8.59754 7.07688 8.59754 6.98979 8.60546C5.10562 8.54212 3.60938 6.99837 3.60938 5.09837C3.60937 3.15879 5.17688 1.58337 7.12438 1.58337C9.06396 1.58337 10.6394 3.15879 10.6394 5.09837C10.6315 6.99837 9.13521 8.54212 7.25104 8.60546Z" stroke="#191B21" stroke-width="1.5" stroke-linecap="round" stroke-linejoin="round"/>
<path d="M12.9916 3.16663C14.5274 3.16663 15.7624 4.40954 15.7624 5.93746C15.7624 7.43371 14.5749 8.65288 13.0945 8.70829C13.0312 8.70038 12.9599 8.70038 12.8887 8.70829" stroke="#8348FF" stroke-width="1.5" stroke-linecap="round" stroke-linejoin="round"/>
<path d="M3.2943 11.5266C1.37846 12.8091 1.37846 14.8991 3.2943 16.1737C5.47138 17.6304 9.0418 17.6304 11.2189 16.1737C13.1347 14.8912 13.1347 12.8012 11.2189 11.5266C9.04971 10.0779 5.4793 10.0779 3.2943 11.5266Z" stroke="#191B21" stroke-width="1.5" stroke-linecap="round" stroke-linejoin="round"/>
<path d="M14.5195 15.8334C15.0895 15.7146 15.6279 15.485 16.0712 15.1446C17.3062 14.2184 17.3062 12.6905 16.0712 11.7642C15.6358 11.4317 15.1054 11.21 14.5433 11.0834" stroke="#8348FF" stroke-width="1.5" stroke-linecap="round" stroke-linejoin="round"/>
</svg>
