<svg width="36" height="26" viewBox="0 0 36 26" fill="none" xmlns="http://www.w3.org/2000/svg">
<path fill-rule="evenodd" clip-rule="evenodd" d="M30.4036 2.49956C25.5011 2.14342 18.0753 2.14342 18 2.14342V2.1665H17.9902C17.9182 2.1665 10.4989 2.1698 5.58982 2.52264L5.37382 2.54242L5.35924 2.54385C4.72464 2.60612 4.00709 2.67652 3.31855 3.3932C2.99782 3.71636 2.61818 4.88371 2.49055 5.72461C2.28415 7.55411 2.1749 9.39351 2.16327 11.2348V13.9256C2.17441 15.7669 2.28366 17.6063 2.49055 19.4358C2.61491 20.2668 2.988 21.4309 3.31527 21.7606C3.924 22.3971 4.77164 22.4993 5.51782 22.5883C5.70764 22.6081 5.868 22.6312 6.03491 22.6576C8.83964 22.8983 17.6269 22.9873 18.0033 22.9873C18.3305 22.9873 25.5862 22.9543 30.4036 22.6246L30.6262 22.6015L30.6313 22.601C31.2682 22.5385 31.9895 22.4677 32.6782 21.7507C32.9989 21.4408 33.3818 20.2569 33.5029 19.4424C33.7094 17.6118 33.8186 15.7713 33.8302 13.9289V11.2117C33.819 9.37041 33.7098 7.53101 33.5029 5.70151C33.3753 4.86721 33.0022 3.69987 32.6749 3.37011C31.9811 2.64795 31.2742 2.5787 30.6196 2.51934L30.4036 2.49956ZM5.40655 0.38582C10.4433 0.0230799 18 0.0230799 18 0.0230799V0C18 0 25.5633 -2.68221e-07 30.6098 0.36603C30.6751 0.37344 30.7477 0.38024 30.8268 0.38766C31.5929 0.45942 32.9699 0.58844 34.2098 1.87961C35.2898 2.96781 35.64 5.43771 35.64 5.43771C35.8642 7.36321 35.9844 9.29951 36 11.2381V13.9553C35.9822 15.894 35.8598 17.8304 35.6335 19.7557C35.6335 19.7557 35.28 22.2256 34.2033 23.3105C32.973 24.5978 31.601 24.7299 30.8289 24.8042C30.7465 24.8122 30.6711 24.8194 30.6033 24.8274C25.5633 25.2 18 25.2 18 25.2C18 25.2 8.64 25.1143 5.76 24.8406C5.62212 24.8145 5.45483 24.7941 5.26534 24.7711C4.35285 24.6602 2.92566 24.4868 1.79018 23.3072C0.710182 22.2223 0.36 19.7524 0.36 19.7524C0.135753 17.8269 0.0155752 15.8906 0 13.952V11.2348C0.0218737 9.30361 0.147512 7.37501 0.376363 5.45751C0.376363 5.45751 0.729818 2.98759 1.80655 1.8994C3.0381 0.61386 4.40559 0.48304 5.17784 0.40917C5.26134 0.40118 5.33788 0.39386 5.40655 0.38582ZM23.9994 12.5992L14.3994 17.9992V7.19921L23.9994 12.5992Z" fill="#F5F8FF"/>
</svg>
